<?xml version="1.0" standalone="no"?>
<!DOCTYPE svg PUBLIC "-//W3C//DTD SVG 20010904//EN"
 "http://www.w3.org/TR/2001/REC-SVG-20010904/DTD/svg10.dtd">
<svg version="1.0" xmlns="http://www.w3.org/2000/svg"
 width="1221.000000pt" height="1221.000000pt" viewBox="0 0 1221.000000 1221.000000"
 preserveAspectRatio="xMidYMid meet">
<metadata>
Created by potrace 1.11, written by Peter Selinger 2001-2013
</metadata>
<g transform="translate(0.000000,1221.000000) scale(0.100000,-0.100000)"
fill="#000000" stroke="none">
<path d="M6693 10354 c-141 -51 -161 -67 -255 -206 -61 -90 -116 -156 -213
-251 -71 -71 -145 -136 -164 -144 -37 -16 -177 -120 -251 -187 -47 -42 -150
-172 -150 -189 0 -5 -20 -43 -45 -84 -24 -41 -49 -91 -55 -111 -16 -60 -12
-197 12 -338 l21 -132 -20 -38 c-11 -22 -34 -47 -51 -57 -43 -25 -161 -57
-168 -45 -4 5 7 28 24 51 40 57 62 102 62 127 0 36 -57 106 -112 140 -29 18
-64 42 -78 55 -15 13 -43 25 -70 28 -25 3 -112 21 -195 40 -147 34 -155 35
-445 42 -284 6 -576 -5 -910 -35 -52 -5 -153 -12 -225 -16 -71 -3 -220 -21
-330 -39 -110 -18 -251 -36 -313 -40 -111 -7 -190 -24 -307 -65 -61 -21 -165
-36 -165 -22 0 4 5 14 10 22 8 12 10 12 10 -5 1 -13 6 -7 14 16 7 20 40 68 74
107 83 97 87 106 56 121 -14 6 -31 11 -38 11 -20 0 -113 -111 -172 -203 -70
-112 -119 -143 -222 -139 -68 2 -76 0 -120 -30 -107 -74 -363 -208 -396 -208
-13 0 -42 14 -65 30 -148 108 -349 195 -476 206 -87 8 -185 30 -306 69 -91 29
-112 32 -143 24 -47 -13 -63 -39 -77 -128 -14 -91 -8 -124 31 -168 25 -28 30
-42 30 -83 0 -103 -21 -192 -68 -287 -43 -87 -45 -94 -37 -145 10 -63 10 -131
0 -175 -5 -22 -2 -38 9 -55 9 -13 16 -43 16 -70 0 -25 5 -59 11 -75 8 -23 6
-39 -17 -95 -42 -106 -20 -123 79 -62 56 35 87 39 87 11 0 -37 -44 -178 -84
-270 -118 -272 -165 -445 -179 -667 -9 -140 -8 -167 11 -280 12 -69 37 -172
57 -230 20 -58 42 -125 50 -150 14 -48 92 -265 121 -340 28 -73 24 -239 -17
-761 -13 -173 -8 -249 21 -297 25 -41 50 -41 99 3 24 22 49 35 65 35 39 0 63
15 138 86 36 35 71 64 78 64 6 0 8 -4 5 -10 -3 -5 -2 -10 3 -10 5 0 18 -19 28
-42 10 -24 43 -77 73 -118 30 -41 69 -100 86 -130 36 -64 225 -307 306 -395
30 -33 80 -90 111 -126 31 -37 82 -93 115 -126 45 -47 74 -90 123 -188 36 -69
67 -128 70 -129 3 -2 20 3 38 10 24 11 32 20 32 39 0 24 2 25 60 23 68 -2 82
7 129 81 22 35 61 147 61 176 0 2 -11 16 -25 31 -14 15 -25 21 -25 14 0 -7 -2
-11 -5 -8 -3 2 6 42 20 89 13 46 25 108 25 136 0 85 19 191 53 293 27 81 32
117 39 245 12 251 12 249 36 282 23 33 53 136 55 189 2 53 -17 66 -83 58 -49
-5 -61 -3 -77 13 -11 11 -24 18 -30 16 -5 -2 -16 4 -24 13 -11 14 -10 16 10
12 16 -2 38 11 74 45 48 45 51 49 34 62 -19 14 -53 9 -96 -15 -24 -12 -51 -7
-51 9 0 6 12 16 28 23 19 10 26 21 25 36 -2 12 2 22 8 22 5 0 7 -6 3 -12 -4
-7 4 -3 18 10 35 31 40 66 21 129 -16 52 -16 53 5 76 27 29 28 43 1 57 -15 8
-29 8 -51 1 -57 -20 -108 -7 -80 21 14 14 172 13 207 -2 17 -7 33 -13 36 -12
4 1 2 -18 -3 -41 -5 -23 -7 -64 -4 -92 4 -35 1 -56 -9 -69 -29 -39 -12 -136
24 -136 21 0 31 18 31 57 0 17 13 38 40 62 45 41 50 64 17 85 -26 18 -29 69
-7 122 7 17 11 38 7 46 -8 23 -89 47 -199 61 -54 6 -98 16 -98 22 0 5 -5 3
-10 -5 -25 -38 -7 15 21 62 17 29 42 83 56 121 47 132 81 197 101 197 11 0 48
9 82 20 34 11 74 20 89 20 42 0 304 89 379 130 49 26 150 70 161 70 7 0 50 18
97 40 47 22 87 40 90 40 2 0 45 23 95 51 50 27 101 55 113 62 72 39 318 210
374 260 162 143 288 280 325 352 22 44 55 71 121 100 32 14 102 52 155 84 54
32 109 62 122 66 35 11 142 71 238 134 247 165 340 218 391 226 13 2 82 43
160 94 100 66 250 211 270 261 7 19 26 54 42 77 24 36 27 48 23 100 -2 32 -4
61 -5 66 0 11 -39 8 -63 -5 -43 -23 -191 -36 -304 -27 -60 5 -119 9 -132 9
-21 0 -18 5 28 50 28 28 48 50 45 50 -4 0 3 11 16 25 13 14 27 25 32 25 10 0
-10 -42 -24 -51 -6 -4 10 -15 34 -27 32 -15 64 -20 126 -20 83 -1 84 -1 100
30 29 54 55 76 111 93 67 22 102 54 141 129 27 52 30 67 30 150 -1 50 -7 118
-15 151 -31 129 -8 267 60 366 111 159 173 223 280 292 100 64 364 330 440
441 33 49 81 111 106 138 40 42 51 48 86 48 22 0 45 -6 50 -12 16 -22 52 -151
59 -211 9 -78 69 -168 140 -208 106 -60 110 -62 150 -54 31 5 58 26 134 99 52
51 106 100 120 109 39 27 94 21 184 -20 64 -29 94 -37 143 -37 62 -1 63 -1
115 52 32 31 63 52 76 52 21 0 29 -11 92 -130 23 -45 40 -118 40 -178 0 -51
26 -118 56 -143 10 -9 51 -27 89 -39 96 -31 138 -54 170 -91 24 -30 26 -38 21
-93 -12 -136 -25 -453 -25 -636 0 -107 -6 -259 -13 -338 -13 -156 -5 -239 33
-346 23 -67 26 -194 5 -234 -8 -15 -26 -38 -41 -52 -33 -30 -65 -99 -75 -160
-8 -49 -2 -92 38 -269 23 -101 24 -120 14 -170 -7 -32 -12 -67 -12 -79 0 -23
-54 -215 -66 -234 -4 -6 -10 -26 -15 -46 -11 -49 6 -85 73 -154 65 -67 100
-78 168 -53 75 28 93 29 115 5 32 -35 25 -101 -20 -194 -35 -72 -37 -81 -26
-116 13 -44 20 -51 84 -74 27 -10 66 -35 88 -56 33 -32 39 -43 39 -80 0 -29
-10 -59 -31 -97 -42 -74 -37 -114 26 -213 72 -113 118 -144 174 -115 16 8 38
29 49 47 59 95 102 100 146 18 28 -52 29 -59 27 -170 -1 -104 -4 -119 -26
-152 -14 -21 -30 -38 -35 -38 -5 0 -7 -8 -4 -17 5 -16 4 -16 -8 -3 -21 24
-119 85 -157 98 -61 21 -160 118 -195 191 -23 48 -38 67 -53 69 -34 5 -38 -34
-12 -104 16 -45 35 -72 80 -114 84 -78 81 -89 -28 -83 -108 6 -130 -5 -112
-54 6 -18 18 -35 27 -37 34 -11 179 -4 242 11 61 15 68 15 102 -1 35 -17 124
-109 162 -167 15 -23 15 -33 5 -75 -20 -84 -75 -124 -169 -124 -59 0 -140 -20
-140 -35 0 -5 -6 1 -13 15 -7 13 -32 38 -57 56 -98 70 -110 86 -110 151 0 77
-34 149 -90 194 -95 75 -103 86 -97 130 3 22 1 54 -4 72 -13 48 -86 123 -154
158 -33 17 -99 55 -146 85 -47 30 -96 54 -108 54 -28 0 -28 -30 2 -57 43 -40
213 -149 259 -167 26 -9 59 -31 73 -48 22 -26 25 -39 23 -92 -2 -71 7 -91 74
-162 51 -54 68 -93 68 -156 0 -45 34 -135 62 -165 11 -12 48 -38 81 -59 34
-20 64 -39 66 -40 2 -2 1 -14 -3 -27 -5 -23 -7 -24 -58 -14 -78 14 -104 12
-158 -13 -91 -43 -102 -22 -156 287 -6 35 -63 93 -90 93 -18 0 -29 -11 -49
-50 -14 -27 -31 -50 -38 -50 -15 1 -148 152 -164 188 -7 15 -13 50 -13 77 -2
87 -36 149 -155 281 -47 53 -98 67 -140 40 -37 -25 -31 -44 22 -67 65 -28 107
-61 143 -114 31 -45 60 -122 60 -160 0 -46 24 -99 68 -153 25 -31 60 -84 77
-117 22 -44 40 -66 70 -82 55 -31 81 -29 100 7 8 16 23 34 32 40 17 11 17 11
1 6 -14 -4 -18 0 -18 17 0 12 4 29 10 37 10 17 16 7 24 -45 2 -16 11 -52 19
-80 9 -27 22 -75 31 -107 9 -33 33 -77 56 -107 22 -28 40 -56 40 -63 0 -9 3
-9 11 2 9 13 10 13 6 0 -2 -8 -8 -15 -13 -16 -18 -2 -50 -15 -121 -51 l-71
-37 -59 17 c-32 10 -82 16 -112 15 l-54 -3 -18 59 c-18 60 -45 96 -91 124 -22
13 -33 36 -59 115 -23 73 -29 101 -20 110 24 24 8 52 -91 148 -98 96 -128 113
-128 71 0 -28 47 -126 69 -146 10 -10 22 -32 25 -50 4 -18 36 -91 72 -162 52
-104 76 -139 120 -179 53 -49 55 -52 70 -135 22 -119 22 -115 -6 -118 -14 -2
-22 -1 -18 3 4 4 -3 16 -16 26 -39 31 -74 40 -116 30 -22 -5 -39 -6 -38 -2 0
3 0 29 -1 58 -1 51 -3 55 -83 143 -66 72 -96 97 -143 119 -34 15 -73 43 -88
62 -16 19 -34 41 -42 51 -7 9 -11 18 -9 21 2 2 -1 18 -7 35 -8 23 -17 32 -33
32 -29 0 -56 -30 -56 -62 0 -37 87 -158 113 -158 24 0 180 -115 230 -170 63
-68 76 -107 57 -173 -6 -23 -15 -66 -20 -96 -12 -77 -28 -108 -62 -122 -25
-10 -40 -9 -103 11 -89 28 -132 23 -181 -19 -41 -37 -53 -38 -103 -9 -35 20
-41 21 -84 8 -46 -12 -72 -35 -121 -105 -10 -15 -33 -33 -50 -40 -17 -8 -47
-30 -65 -49 -40 -42 -60 -45 -88 -14 -34 38 -45 69 -39 107 3 20 1 74 -3 120
-7 69 -13 87 -34 109 -36 35 -118 42 -165 13 -37 -24 -72 -76 -72 -107 0 -12
-14 -48 -31 -80 -38 -72 -40 -114 -6 -210 l24 -70 -58 -43 c-31 -23 -63 -49
-70 -57 -6 -8 -21 -14 -33 -14 -15 0 -17 3 -7 9 9 6 10 11 2 15 -6 4 -11 22
-11 40 0 42 -31 83 -70 91 -55 12 -89 -4 -156 -73 -59 -61 -67 -66 -119 -73
-71 -9 -103 -31 -123 -80 -15 -40 -19 -42 -93 -54 -45 -7 -52 -15 -74 -85 -31
-96 -33 -100 -58 -100 -13 0 -36 14 -53 31 -27 28 -33 31 -79 26 -85 -9 -131
-33 -178 -96 -30 -39 -64 -68 -111 -95 l-67 -39 -79 12 c-88 13 -127 7 -195
-32 -50 -28 -85 -92 -85 -157 0 -25 -10 -81 -21 -125 -31 -117 -33 -131 -19
-180 17 -59 4 -75 -59 -75 -68 0 -148 -26 -167 -54 -8 -13 -14 -41 -14 -62 6
-186 8 -180 -59 -183 -75 -3 -101 -18 -118 -65 -18 -54 -37 -72 -95 -92 -68
-22 -99 -72 -107 -171 -7 -73 -23 -106 -59 -116 -11 -2 -37 15 -70 47 -50 49
-53 55 -63 121 -15 100 -14 557 0 627 9 44 10 120 2 319 -6 144 -9 264 -6 268
2 4 -1 65 -7 135 -8 100 -8 136 2 169 17 58 24 514 10 687 -7 96 -7 157 0 210
6 41 14 118 19 170 4 53 11 102 16 110 5 8 8 89 6 180 -1 96 3 196 10 240 7
41 12 111 10 155 -1 44 3 139 9 210 6 72 17 213 25 315 8 102 21 209 30 238 9
31 14 66 10 83 -11 49 60 138 159 199 37 22 43 23 104 12 77 -13 90 -8 130 51
54 79 81 142 102 234 25 106 40 124 119 143 29 7 65 25 86 43 31 28 39 45 59
122 35 141 48 156 179 210 111 47 157 95 181 190 9 35 16 79 16 96 0 25 10 41
46 74 30 28 45 49 42 61 -3 17 -14 19 -113 19 -84 0 -113 -4 -129 -16 -12 -9
-27 -14 -34 -12 -7 3 -10 -1 -6 -10 3 -8 -1 -28 -10 -44 -12 -25 -13 -40 -3
-97 9 -57 9 -72 -4 -94 -19 -35 -112 -99 -225 -155 -50 -26 -97 -54 -105 -63
-9 -12 -14 -43 -14 -95 0 -90 -9 -105 -74 -120 -60 -13 -85 -33 -130 -99 -27
-42 -42 -78 -51 -127 -7 -37 -17 -73 -21 -79 -5 -6 -7 -13 -4 -16 3 -2 -21 -1
-52 3 -51 7 -66 4 -130 -21 -66 -27 -173 -85 -229 -124 -11 -8 -37 -39 -58
-69 -42 -61 -38 -28 -51 -417 -3 -80 -12 -284 -20 -455 -9 -170 -20 -466 -25
-657 -5 -191 -11 -352 -14 -357 -4 -5 -11 -121 -16 -258 -14 -362 -19 -452
-27 -513 -6 -51 -5 -1359 2 -1370 1 -3 6 -86 9 -185 9 -224 17 -267 59 -299
57 -43 231 -136 254 -136 31 0 105 29 124 49 8 9 26 43 39 76 30 79 63 114
115 122 43 7 92 50 130 114 12 19 41 44 69 59 55 30 77 65 121 195 36 109 41
114 128 113 122 -1 219 40 225 94 3 22 -4 32 -39 53 l-41 27 8 51 c5 29 9 107
9 175 0 143 -1 142 91 140 64 -1 108 17 148 61 10 11 31 23 47 26 15 4 55 24
87 45 52 33 71 39 138 45 131 12 253 41 281 67 14 13 37 50 53 84 31 70 71
104 145 127 28 9 88 30 135 47 75 29 102 33 230 39 138 7 148 9 215 42 43 21
75 44 82 59 20 40 15 115 -11 178 -25 60 -24 97 7 207 6 22 11 46 12 54 0 8 7
16 15 18 13 4 13 3 0 -6 -13 -9 -12 -11 6 -11 11 0 31 -11 44 -25 l23 -24 -11
-153 c-10 -138 -10 -156 6 -188 25 -52 64 -53 139 -2 32 21 85 56 118 77 33
21 88 67 122 102 l63 64 58 -7 c48 -5 68 -2 107 15 59 26 72 26 126 1 24 -11
52 -20 61 -20 35 0 264 118 291 150 15 17 27 36 27 41 0 5 16 27 36 49 36 39
37 40 88 34 38 -5 61 -2 84 10 36 18 76 20 119 6 46 -17 104 6 125 50 24 48
44 60 100 60 38 0 54 6 80 29 18 15 44 32 58 36 61 18 112 57 131 101 11 24
30 49 42 56 14 7 74 12 167 13 128 1 150 3 192 23 26 12 56 35 67 50 33 46 80
177 95 262 l14 79 107 106 c60 58 111 105 114 105 4 0 11 -10 16 -22 16 -37
49 -34 80 6 22 29 34 36 61 36 33 0 58 22 66 59 3 16 62 61 78 61 6 0 10 -7
10 -15 0 -18 -79 -169 -91 -173 -5 -2 -7 -7 -4 -12 3 -4 -4 -19 -15 -31 l-19
-24 9 33 c8 31 7 33 -12 30 -22 -3 -72 -77 -84 -123 -3 -13 -26 -56 -50 -95
-33 -53 -44 -82 -44 -111 0 -23 -10 -60 -25 -87 -14 -26 -25 -55 -25 -64 0 -9
-20 -34 -45 -54 -35 -29 -43 -43 -39 -60 7 -28 -54 -103 -67 -82 -5 8 1 20 19
34 15 12 27 31 28 42 1 17 -2 19 -29 11 -46 -13 -65 -35 -49 -57 24 -34 23
-42 -7 -79 -29 -35 -45 -103 -21 -88 6 3 10 -2 10 -11 0 -10 -3 -14 -7 -11 -4
4 -13 -7 -20 -24 -10 -25 -10 -36 1 -64 l14 -33 -79 -76 c-44 -41 -112 -98
-152 -125 -105 -71 -162 -125 -173 -163 -7 -23 -29 -48 -73 -83 -230 -181
-243 -193 -255 -247 -5 -20 -1 -33 14 -48 28 -28 71 -20 175 30 44 22 96 42
115 46 59 11 238 125 307 195 24 23 45 40 49 37 3 -4 -3 -15 -14 -26 -20 -20
-20 -20 6 -30 15 -6 44 -13 66 -16 41 -5 55 5 113 81 11 15 24 25 27 22 3 -3
-16 -34 -44 -68 -51 -63 -67 -99 -56 -126 8 -22 18 -19 69 20 50 38 68 43 87
20 23 -28 63 -16 135 38 39 29 70 58 70 64 0 6 12 21 28 33 l27 22 -12 -27
c-7 -16 -17 -24 -26 -20 -12 4 -13 3 -2 -10 7 -8 19 -15 26 -15 8 0 11 -6 8
-15 -3 -8 -9 -14 -12 -13 -23 2 -34 -7 -53 -44 -12 -23 -30 -54 -41 -69 -11
-14 -18 -37 -16 -50 2 -19 9 -24 33 -24 25 0 34 7 51 40 12 22 19 43 17 47 -2
5 15 28 39 54 30 31 48 43 59 39 15 -5 14 -10 -8 -31 -13 -13 -26 -24 -29 -24
-3 0 -17 -8 -30 -19 l-24 -19 24 -4 c15 -3 48 10 97 38 41 24 79 44 85 44 6 0
19 -9 29 -20 30 -33 53 -24 124 52 48 50 73 69 85 65 25 -10 19 -31 -20 -78
-34 -41 -35 -45 -28 -93 12 -73 7 -432 -6 -456 -15 -28 -37 -25 -54 8 -8 15
-26 38 -41 52 -15 14 -35 41 -45 60 -28 54 -53 73 -89 65 -25 -5 -34 -1 -57
24 -32 37 -74 42 -74 10 0 -11 21 -49 48 -85 53 -71 109 -165 179 -301 39 -76
52 -93 70 -93 19 0 23 6 24 33 l1 32 7 -30 c6 -31 6 -31 84 -27 28 2 38 10 70
58 21 31 34 53 29 50 -14 -8 -22 63 -13 104 7 33 8 32 15 -28 9 -67 25 -86 64
-75 16 4 22 1 22 -12 0 -14 -3 -15 -15 -5 -13 11 -14 10 -9 -3 8 -22 -9 -49
-103 -165 -81 -98 -83 -102 -61 -111 66 -25 63 -26 121 46 136 171 168 233
134 262 -8 6 -16 9 -18 7 -2 -2 -5 42 -6 97 -3 132 -9 159 -34 175 -12 8 -18
9 -15 3 4 -5 2 -12 -4 -16 -11 -7 -13 5 -4 29 9 24 26 20 75 -18 55 -43 88
-56 117 -45 32 12 28 45 -7 62 -27 13 -29 13 -24 -2 5 -12 3 -13 -6 -5 -9 8
-8 23 6 65 16 49 21 54 46 52 17 -1 27 3 27 12 0 18 -32 29 -41 14 -8 -14 -11
8 -11 99 0 35 5 69 10 74 11 11 87 -43 124 -87 23 -27 22 -83 -2 -120 -15 -23
-19 -40 -14 -75 6 -50 -10 -100 -49 -146 -13 -16 -29 -39 -36 -51 -14 -27 -14
-80 -1 -88 13 -8 61 21 57 34 -5 20 15 10 40 -19 l25 -31 -21 -51 c-28 -68
-28 -98 2 -98 12 0 35 -7 51 -15 16 -9 35 -14 41 -11 6 2 29 35 51 72 46 80
163 202 223 231 23 12 37 23 31 26 -6 3 -5 4 2 3 8 -2 13 -21 14 -52 1 -73 5
-77 83 -70 36 4 165 11 285 16 286 13 279 9 290 178 l7 102 -25 12 c-20 8 -62
8 -178 -2 -84 -7 -220 -14 -303 -15 -82 -1 -154 -3 -160 -5 -5 -1 -20 -1 -33
0 -15 1 -35 -12 -60 -39 -21 -23 -43 -41 -50 -41 -6 0 -20 17 -29 37 -10 20
-24 38 -30 41 -7 2 -23 -20 -37 -52 -18 -41 -30 -56 -45 -56 -11 0 -21 8 -24
18 -2 9 -3 95 -3 191 1 126 4 175 13 178 7 3 27 -18 44 -45 34 -50 96 -102
123 -102 8 0 20 8 25 18 7 14 1 23 -31 47 -43 32 -101 106 -112 143 -12 38 11
24 58 -35 85 -109 100 -125 138 -149 52 -33 80 -32 76 3 -2 18 -18 38 -48 61
-48 37 -60 59 -38 73 25 16 51 9 130 -37 44 -25 86 -43 93 -40 8 2 15 17 17
33 3 30 5 30 75 17 20 -4 39 -2 48 6 14 11 13 14 -2 26 -10 7 -15 14 -11 14
17 0 102 -43 136 -69 61 -48 267 -151 302 -151 27 0 31 3 28 22 -2 16 -18 30
-53 46 -27 13 -52 27 -55 31 -3 3 -11 6 -17 7 -34 3 -36 6 -8 19 17 8 38 20
47 27 14 10 24 10 52 0 26 -10 41 -10 55 -3 33 18 46 13 130 -49 93 -69 121
-76 121 -30 0 22 -7 33 -27 44 -28 15 -79 74 -114 134 -15 26 -25 32 -53 32
-40 0 -86 46 -86 86 0 14 -4 23 -9 19 -6 -3 -15 5 -22 17 -12 22 -12 22 15 5
29 -20 66 -15 66 9 0 8 5 14 11 14 5 0 7 -4 4 -10 -3 -5 0 -10 7 -10 8 0 30
-16 49 -36 18 -20 74 -70 122 -110 82 -69 118 -87 131 -65 4 5 -48 63 -114
128 -145 142 -197 188 -270 238 -30 21 -69 49 -86 62 -32 24 -44 22 -44 -7 0
-18 46 -64 100 -100 19 -13 49 -37 65 -53 l30 -29 -38 23 c-62 35 -131 98
-165 148 -14 21 -14 24 1 33 24 13 21 23 -20 69 -34 38 -36 42 -25 73 17 46
16 53 -18 99 -17 25 -34 65 -40 97 -7 39 -17 61 -35 75 -28 23 -35 58 -10 49
13 -5 13 -9 3 -22 -7 -9 2 -6 20 7 17 12 32 31 32 41 0 33 19 33 56 0 38 -33
67 -36 72 -7 7 35 -136 198 -241 276 -45 33 -63 55 -82 98 -39 86 -32 115 31
132 24 6 32 2 57 -26 18 -20 38 -33 53 -33 35 0 31 32 -9 77 -39 45 -94 135
-132 216 -25 54 -80 107 -111 107 -20 0 -47 39 -41 60 6 22 -8 28 -16 8 -4
-10 -6 -10 -6 -1 -2 20 15 23 49 11 25 -8 38 -8 53 1 10 7 17 9 14 4 -3 -4 16
-24 41 -43 25 -19 62 -50 84 -69 35 -31 41 -33 63 -21 13 7 22 17 19 22 -3 4
1 8 8 8 8 0 38 -25 68 -55 30 -30 60 -55 67 -55 20 0 25 20 13 51 -7 16 -11
32 -8 34 3 3 25 -11 49 -30 24 -19 50 -35 57 -35 27 0 23 31 -7 65 -31 35 -41
78 -21 90 22 14 8 50 -40 102 -72 79 -76 89 -40 102 37 12 39 39 6 70 -33 31
-52 79 -38 93 8 8 25 -2 63 -36 89 -80 121 -42 41 47 -59 65 -152 200 -152
220 0 8 13 17 29 20 45 9 46 35 2 143 -23 58 -36 103 -30 108 10 11 133 -43
204 -91 56 -37 105 -44 105 -15 0 24 -16 37 -115 97 -44 27 -107 71 -139 97
-58 48 -94 58 -88 25 2 -9 -2 -17 -8 -17 -6 0 -8 5 -5 10 3 6 -3 10 -13 10
-34 0 -182 185 -182 228 0 18 -55 115 -74 131 -20 17 -105 2 -116 -20 -13 -23
21 -118 51 -145 29 -26 52 -73 46 -95 -3 -10 0 -20 7 -23 6 -3 1 -3 -12 0 -13
3 -29 0 -37 -6 -35 -29 -18 -63 150 -295 36 -49 77 -115 92 -145 14 -30 39
-74 55 -96 16 -23 36 -59 43 -80 8 -22 14 -33 15 -26 0 7 8 4 20 -8 11 -11 24
-20 30 -20 5 0 7 -7 3 -16 -5 -13 -8 -13 -27 4 -11 10 -42 29 -69 41 -26 13
-63 42 -83 67 -25 30 -44 44 -61 44 -21 0 -22 -2 -12 -21 6 -13 7 -19 1 -15
-6 3 -29 43 -52 89 -48 94 -67 118 -88 115 -11 -2 -16 9 -19 40 -7 69 -19 94
-46 90 -19 -3 -22 -9 -21 -43 1 -22 -1 -34 -3 -27 -8 20 -32 -18 -33 -50 0
-28 49 -95 119 -163 22 -21 41 -45 41 -52 0 -7 8 -29 17 -49 17 -34 17 -37 0
-49 -26 -19 -21 -40 23 -105 39 -57 48 -80 33 -80 -28 1 -67 57 -133 192 -61
124 -79 154 -98 156 -20 3 -22 0 -17 -20 4 -13 7 -32 9 -41 1 -9 5 -20 9 -23
19 -19 5 -34 -32 -34 -34 0 -40 4 -45 27 -4 14 -20 45 -35 67 -15 23 -33 56
-40 74 -8 17 -20 32 -28 32 -32 0 -25 -36 28 -135 47 -91 52 -106 44 -131 -6
-16 -17 -29 -25 -29 -8 0 -36 40 -64 93 -48 88 -76 115 -76 72 0 -14 5 -18 17
-13 11 4 14 3 9 -5 -11 -18 -58 -3 -81 25 -19 23 -22 24 -34 9 -12 -14 -10
-25 13 -75 29 -65 34 -103 12 -95 -15 6 -37 55 -56 124 -23 89 -23 110 0 161
24 50 22 71 -4 50 -31 -26 -49 -9 -66 59 -10 44 -20 66 -32 68 -27 5 -30 -31
-8 -114 26 -102 26 -114 -11 -180 -38 -67 -28 -90 19 -45 18 16 35 25 38 20 3
-5 2 -9 -2 -9 -4 0 0 -8 9 -17 8 -10 21 -40 28 -68 6 -27 19 -63 27 -80 16
-35 62 -86 71 -81 3 2 7 -18 9 -44 2 -41 0 -49 -17 -55 -10 -3 -24 -19 -30
-36 -12 -34 -39 -49 -52 -28 -5 8 -9 55 -9 104 0 50 -5 97 -10 105 -16 25 -42
0 -62 -60 -19 -57 -42 -89 -55 -76 -4 4 3 35 15 69 29 82 29 111 -3 125 -19 9
-23 8 -19 -1 2 -7 -2 -21 -10 -32 -19 -25 -21 -5 -4 42 15 42 4 52 -25 25 -24
-23 -47 -29 -47 -13 0 5 7 25 15 44 31 76 6 105 -38 45 -22 -30 -56 -108 -72
-164 -3 -12 -14 -29 -25 -39 -19 -18 -20 -17 -20 4 0 12 9 39 20 61 11 22 20
52 20 67 0 15 9 57 20 93 11 36 20 78 20 95 0 16 25 80 56 141 56 111 63 149
27 142 -11 -2 -31 -37 -56 -93 -69 -160 -107 -235 -120 -235 -8 0 -7 -4 3 -10
9 -6 10 -10 3 -10 -6 0 -15 5 -18 10 -3 6 -22 10 -41 10 -19 0 -34 5 -34 10 0
6 14 37 30 70 36 70 37 91 9 108 -14 9 -19 20 -16 34 8 27 -2 48 -22 48 -10
-1 -31 -32 -58 -88 -73 -154 -139 -286 -163 -328 -27 -46 -22 -74 12 -73 13 0
17 3 10 6 -9 3 -10 9 -2 17 5 7 26 44 46 82 19 38 49 86 65 106 16 20 29 43
29 50 0 15 46 114 63 135 5 7 13 10 19 7 5 -3 -3 -27 -19 -52 -15 -26 -38 -69
-51 -97 -13 -27 -40 -74 -59 -103 -48 -77 -83 -159 -83 -198 0 -21 -8 -42 -20
-54 -11 -11 -20 -22 -20 -25 0 -25 -3 -25 -9 0 -10 46 -39 39 -83 -20 -21 -27
-44 -62 -51 -77 -13 -30 -47 -38 -47 -12 0 14 2 15 18 3 15 -12 16 -12 6 1
-16 22 -33 100 -27 119 4 9 18 34 33 56 15 22 44 74 64 115 21 41 48 89 62
107 13 17 33 54 44 82 11 28 33 78 50 111 16 33 30 68 30 79 0 33 43 89 70 93
17 2 26 10 28 26 4 29 -28 30 -53 2 -10 -11 -26 -20 -37 -20 -10 0 -19 -6 -19
-12 -1 -7 -3 -23 -4 -36 -1 -13 -11 -33 -22 -45 -11 -12 -26 -38 -34 -57 -36
-91 -175 -340 -191 -340 -5 0 -7 -4 -4 -8 3 -5 -9 -6 -25 -4 -26 4 -59 -1
-176 -24 -19 -4 -23 0 -22 18 0 22 1 22 9 3 9 -20 9 -20 9 0 1 12 45 64 106
125 156 155 229 270 170 270 -21 0 -19 23 6 54 89 113 122 172 121 213 -2 43
89 223 140 279 22 23 56 48 76 55 20 6 56 29 79 50 24 22 49 39 58 39 8 0 42
26 74 58 88 85 156 142 170 142 24 0 116 44 142 67 19 17 25 31 21 48 -6 32
-15 31 -47 -2 -37 -41 -47 -19 -39 85 6 80 5 84 -16 89 -21 6 -22 10 -17 75 6
76 0 86 -48 74 -29 -7 -32 -30 -10 -72 8 -16 14 -55 14 -96 0 -37 2 -72 5 -77
9 -13 -5 -71 -16 -71 -6 0 -8 29 -6 70 2 39 0 70 -4 70 -15 0 -38 -33 -38 -54
0 -12 -5 -27 -11 -33 -6 -6 -14 -26 -18 -45 -5 -22 -13 -32 -22 -29 -56 16
-66 13 -100 -27 -27 -33 -33 -47 -31 -79 2 -26 -2 -44 -12 -52 -10 -8 -16 -9
-16 -3 0 14 -48 -33 -83 -80 -24 -33 -138 -118 -158 -118 -17 0 -9 30 27 90
41 71 42 104 2 108 -16 2 -28 8 -28 13 0 5 18 34 40 63 52 69 60 109 28 156
-21 32 -29 36 -80 40 -31 3 -55 3 -53 0 2 -4 -5 -12 -16 -18 -19 -12 -19 -12
-6 15 8 15 20 51 27 78 9 34 26 64 56 95 24 25 47 62 53 84 5 21 32 73 59 115
82 129 119 193 147 260 15 36 37 79 50 95 13 17 28 48 33 68 6 20 24 54 41 76
18 21 36 55 42 75 5 19 25 58 45 86 31 46 34 56 29 99 -9 74 28 167 83 209 24
18 39 33 34 33 -13 0 -21 72 -12 112 8 35 11 32 16 -17 9 -81 10 -134 1 -172
-7 -34 -5 -50 8 -75 10 -19 21 -70 24 -119 7 -80 10 -89 39 -119 18 -17 32
-39 32 -48 0 -9 12 -48 26 -87 14 -38 29 -105 33 -148 8 -71 12 -80 49 -121
76 -82 67 -127 -16 -76 -68 43 -86 38 -90 -23 -3 -39 -7 -50 -27 -59 -28 -13
-34 -31 -23 -78 4 -19 8 -48 8 -64 0 -16 11 -57 24 -90 30 -76 36 -121 17
-121 -24 0 -74 105 -67 143 4 26 0 35 -20 48 -22 15 -26 15 -50 -1 -15 -9 -22
-20 -17 -24 6 -3 13 -28 16 -56 4 -27 8 -60 11 -72 7 -34 75 -169 91 -183 8
-7 13 -16 10 -20 -8 -12 41 -40 70 -40 28 0 110 -56 164 -114 39 -40 69 -46
96 -16 10 11 27 20 37 20 10 0 29 11 42 25 13 14 28 25 34 25 17 0 76 -68 121
-138 50 -76 73 -123 91 -182 8 -25 19 -48 25 -52 6 -5 3 -8 -7 -8 -37 0 -17
-42 55 -116 58 -59 79 -74 103 -74 16 0 47 -12 68 -26 28 -20 44 -24 64 -19
15 4 46 8 69 9 22 0 45 4 49 8 10 11 -23 45 -81 83 -115 75 -266 255 -213 255
15 0 75 -45 121 -92 40 -40 64 -48 73 -23 4 9 -21 45 -66 97 -73 82 -79 103
-21 74 16 -9 42 -16 56 -16 22 0 26 4 23 23 -2 16 -21 32 -66 55 -71 38 -87
64 -77 129 6 40 5 42 -34 64 -22 12 -40 25 -39 28 2 20 -8 34 -59 84 -47 46
-60 54 -73 44 -12 -9 -13 -9 -3 2 10 11 1 26 -44 75 -30 34 -67 79 -80 100
-14 22 -54 70 -89 107 -35 38 -64 77 -64 87 0 44 -46 187 -96 300 -64 143
-156 426 -172 527 -6 39 -19 124 -28 190 -30 218 -42 268 -69 288 -14 10 -25
28 -25 38 0 40 -19 61 -50 54 -28 -6 -29 -5 -35 42 -3 26 -11 59 -16 73 -10
24 -11 24 -25 5 -8 -10 -14 -29 -14 -40 0 -12 -9 -30 -21 -41 -14 -13 -19 -26
-16 -44 3 -14 13 -61 22 -105 29 -143 34 -169 34 -212 1 -37 -3 -44 -28 -57
-32 -17 -41 -34 -41 -76 0 -39 -17 -80 -33 -80 -7 0 -48 52 -91 115 -43 63
-79 115 -82 115 -2 0 -13 -18 -24 -40 l-21 -40 28 -48 c15 -26 53 -84 85 -130
32 -45 58 -89 58 -97 0 -38 -136 -343 -181 -407 -11 -15 -26 -46 -35 -70 -8
-24 -46 -90 -85 -147 -73 -107 -139 -224 -139 -245 0 -7 -14 -25 -31 -42 -17
-16 -38 -42 -46 -59 -9 -16 -38 -54 -64 -83 -51 -55 -63 -92 -31 -92 10 0 28
7 40 16 13 9 26 14 29 10 13 -12 -10 -78 -40 -115 -18 -22 -60 -74 -95 -116
-69 -85 -81 -125 -36 -125 20 0 55 31 156 136 98 101 136 134 150 130 16 -4
17 -2 7 10 -9 11 -8 14 5 14 20 0 20 -13 0 -56 -16 -34 -65 -79 -141 -129 -38
-24 -43 -32 -43 -64 0 -32 -7 -43 -54 -84 -44 -37 -56 -54 -61 -87 -10 -59
-74 -139 -212 -265 -115 -105 -165 -166 -150 -181 4 -4 -11 -20 -33 -36 -28
-21 -40 -37 -40 -54 0 -38 48 -32 101 12 61 51 97 67 132 60 27 -5 37 0 77 37
57 55 127 99 117 74 -5 -13 -1 -17 16 -17 15 0 43 24 85 70 66 73 99 90 88 45
-14 -56 -28 -76 -78 -113 -74 -55 -100 -85 -156 -179 -36 -62 -74 -106 -149
-175 -55 -51 -153 -149 -219 -217 -130 -135 -115 -128 -214 -106 -19 4 -43 -6
-100 -44 -41 -28 -82 -51 -92 -51 -9 0 -27 13 -41 29 -14 17 -28 27 -32 23 -5
-4 -6 0 -3 8 3 8 13 40 23 70 9 30 28 83 41 117 13 34 24 74 24 89 0 39 -41
87 -127 151 -41 30 -77 61 -80 69 -3 7 0 35 7 62 20 87 16 161 -14 219 -33 66
-56 81 -159 104 -130 30 -167 41 -167 51 0 5 -4 7 -9 4 -14 -9 5 65 32 124 13
30 39 99 56 153 36 113 41 209 15 312 -14 57 -14 69 -1 117 8 29 13 67 10 84
-3 20 4 54 21 96 15 36 33 87 40 114 21 71 25 363 7 489 -10 70 -14 202 -14
435 -1 300 1 340 17 382 12 31 17 63 14 91 -3 23 -2 67 2 96 9 75 -9 165 -49
235 -39 67 -73 91 -151 106 -89 18 -120 30 -136 55 -29 44 -54 125 -70 222
-16 104 -34 144 -93 206 -67 71 -139 67 -222 -10 -45 -42 -52 -45 -89 -40 -22
3 -84 26 -138 51 -54 25 -105 46 -113 46 -9 0 -37 -7 -62 -16 -37 -13 -64 -34
-124 -99 -84 -92 -114 -110 -173 -102 -83 11 -127 70 -150 197 -19 106 -70
252 -97 278 -31 28 -39 27 -150 -14z m3887 -1264 c0 -21 -4 -42 -10 -45 -6 -4
-10 13 -10 45 0 32 4 49 10 45 6 -3 10 -24 10 -45z m-6410 -151 c80 1 169 4
198 7 45 5 51 4 46 -10 -3 -9 -17 -16 -30 -16 -16 0 -32 -13 -54 -44 -16 -25
-30 -48 -30 -53 -1 -4 -9 -26 -20 -48 -11 -22 -19 -47 -20 -55 0 -9 -6 -24
-14 -35 -7 -11 -16 -33 -20 -49 -7 -27 -8 -27 -21 -10 -13 17 -14 16 -6 -11 6
-22 4 -34 -6 -44 -10 -9 -13 -24 -9 -43 3 -17 -2 -60 -12 -96 l-17 -66 -6 44
c-5 34 -6 24 -7 -43 -2 -71 -6 -94 -21 -113 -16 -21 -18 -30 -9 -55 6 -17 12
-28 14 -26 3 2 0 16 -5 30 -8 20 -6 31 10 50 10 14 19 40 19 59 1 26 3 29 10
17 7 -11 4 -34 -6 -69 -9 -30 -14 -66 -12 -81 3 -18 0 -26 -6 -23 -6 3 0 -4
13 -16 16 -14 27 -17 31 -10 4 6 20 8 38 5 20 -3 36 0 46 11 15 14 18 13 32
-21 17 -41 14 -54 -6 -30 -7 8 -18 15 -24 15 -6 0 -3 -5 7 -11 10 -6 27 -30
38 -52 19 -40 20 -38 5 8 -5 17 -1 20 23 20 16 0 32 -3 35 -6 4 -3 -3 -27 -15
-53 -20 -45 -20 -49 -3 -67 24 -27 36 -24 77 16 37 36 40 49 4 18 -19 -17 -19
-17 -12 7 7 24 89 158 117 190 7 9 26 35 42 58 16 23 52 62 82 87 42 36 53 42
56 28 2 -10 -14 -33 -40 -57 -24 -22 -58 -63 -76 -91 -18 -27 -41 -63 -52 -79
-83 -124 -87 -141 -36 -151 19 -4 39 -2 45 4 7 7 2 8 -14 5 -21 -4 -20 -3 6
12 17 9 48 31 70 49 47 37 168 115 179 115 4 0 4 -5 0 -11 -4 -8 0 -8 15 0 25
14 28 23 4 14 -17 -6 -17 -5 0 14 10 11 33 29 52 39 19 10 38 27 41 37 7 22
-14 50 -33 43 -22 -9 -15 15 11 35 15 12 26 32 28 52 3 31 3 32 16 9 10 -18
10 -41 -2 -130 -7 -59 -12 -123 -9 -142 6 -45 -30 -110 -79 -144 -20 -13 -39
-22 -41 -19 -3 2 -10 -12 -17 -31 -6 -20 -19 -40 -28 -46 -9 -5 -12 -10 -5
-10 6 0 18 8 25 18 12 18 14 18 31 2 17 -17 16 -18 -18 -24 -20 -4 -44 -5 -53
-2 -20 6 -95 -17 -86 -27 4 -3 -11 -4 -32 -1 -25 4 -34 2 -26 -4 9 -6 -7 -13
-50 -24 -50 -11 -64 -19 -66 -35 -2 -12 -9 -24 -16 -26 -23 -9 -6 31 22 53 13
11 20 20 14 20 -6 0 -20 -10 -31 -22 -20 -21 -28 -47 -33 -113 -2 -19 -11 -33
-26 -41 -14 -7 -19 -13 -12 -16 7 -2 -41 -21 -106 -42 -66 -20 -126 -40 -134
-43 -8 -3 -6 2 5 11 19 15 17 15 -17 1 -21 -8 -48 -15 -60 -15 -13 0 -36 -12
-53 -26 l-30 -26 32 21 c17 12 42 21 55 21 18 0 13 -5 -22 -22 -25 -11 -53
-20 -63 -20 -9 0 -15 -3 -12 -8 3 -6 -1 -7 -9 -4 -8 3 -23 1 -33 -6 -16 -9
-15 -10 7 -5 49 12 -3 -12 -110 -50 -58 -21 -116 -42 -130 -48 -32 -14 -101
-34 -170 -52 -30 -7 -66 -17 -79 -21 -16 -5 -22 -4 -18 3 4 6 19 14 33 17 61
16 114 48 114 70 0 12 4 26 9 31 5 6 11 24 13 40 3 27 7 31 48 36 44 6 44 6 8
7 -43 2 -68 -6 -68 -22 0 -7 -22 -12 -57 -13 -32 -1 -112 -6 -178 -10 -109 -7
-126 -6 -187 14 -37 11 -102 24 -145 28 -43 5 -91 12 -108 17 -16 6 -68 16
-115 24 -47 7 -110 20 -140 29 -91 25 -170 16 -170 -20 0 -16 58 -35 105 -35
36 1 145 -50 145 -67 0 -7 -11 -15 -25 -19 -14 -3 -29 -13 -34 -21 -7 -14 -14
-13 -54 7 -46 23 -217 175 -217 193 0 11 140 3 225 -13 33 -7 74 -13 90 -14
17 -1 39 -7 50 -13 18 -9 73 -16 240 -29 33 -3 76 -9 95 -14 19 -5 123 -7 230
-5 107 3 202 5 210 4 77 -2 113 0 142 9 56 17 111 24 104 13 -4 -5 21 2 54 16
64 28 68 37 36 87 -17 26 -111 31 -184 10 -30 -9 -66 -14 -81 -11 -28 6 -71
-12 -68 -28 2 -12 -109 -23 -192 -19 -93 4 -260 6 -361 5 -52 -1 -115 2 -140
6 -44 7 -44 7 -15 15 23 6 20 6 -17 4 -30 -2 -45 0 -42 6 4 6 -2 7 -16 3 -14
-5 -20 -3 -16 3 10 17 -92 29 -270 31 l-112 2 -8 27 c-5 15 -8 42 -9 61 0 41
-25 62 -49 42 -20 -17 -20 -40 -2 -60 12 -13 12 -25 4 -61 -15 -64 10 -109
114 -203 131 -119 178 -148 271 -168 38 -9 50 -17 64 -42 l16 -32 -23 20 -24
20 20 -26 c10 -15 22 -25 26 -23 4 3 17 -9 30 -26 12 -17 36 -40 53 -50 25
-16 27 -20 10 -20 -26 0 -77 34 -87 57 -6 16 -7 16 -7 -2 -1 -30 61 -60 128
-62 31 0 110 -4 176 -7 66 -3 128 -5 137 -6 9 0 19 -10 21 -22 l4 -23 2 23 c1
15 -7 26 -21 32 l-23 9 22 0 c12 1 43 12 69 26 26 14 52 25 59 25 7 0 20 9 30
20 15 17 99 50 127 50 53 0 -285 -217 -529 -339 -176 -88 -256 -123 -247 -110
4 7 -3 6 -17 -1 -30 -16 -39 -25 -16 -17 9 4 17 5 17 3 0 -8 -271 -166 -286
-166 -2 0 -1 8 2 18 4 10 3 13 -3 6 -4 -6 -17 -16 -28 -23 -19 -12 -19 -12 0
-6 11 3 16 3 13 -1 -26 -26 -472 -148 -530 -146 -20 2 -79 -11 -131 -28 -52
-16 -116 -32 -143 -35 -27 -3 -65 -8 -84 -10 l-35 -4 33 20 c30 20 42 51 23
63 -4 3 -6 -5 -4 -17 4 -18 -3 -27 -31 -42 -19 -10 -33 -23 -30 -27 3 -4 -1
-8 -8 -8 -8 0 -49 -22 -91 -49 -42 -27 -97 -54 -122 -61 -27 -8 -72 -35 -117
-73 -67 -56 -70 -57 -33 -16 l40 44 -42 -40 c-24 -21 -43 -46 -43 -55 0 -8
-13 -30 -30 -48 -31 -34 -50 -65 -50 -79 1 -4 7 3 15 17 13 24 14 23 8 -15 -3
-22 -10 -41 -15 -43 -4 -2 -8 -8 -8 -13 0 -6 4 -7 10 -4 6 4 10 -14 10 -47 0
-29 3 -64 7 -77 4 -15 2 -22 -4 -18 -5 3 -8 -6 -5 -22 2 -16 -1 -39 -8 -52
-11 -23 -10 -23 4 -5 9 11 16 33 16 50 0 28 1 29 16 14 15 -15 14 -19 -7 -48
-13 -18 -39 -48 -58 -66 -28 -29 -33 -31 -28 -13 4 16 3 19 -5 11 -8 -8 -7
-21 3 -49 11 -29 21 -39 39 -40 l25 -2 -25 9 c-23 9 -23 9 7 6 18 -1 31 0 28
2 -2 2 20 33 49 68 30 34 60 71 68 81 7 10 21 24 30 31 16 13 16 11 8 -20 -6
-18 -10 -33 -10 -34 0 -1 -9 -4 -20 -7 -21 -5 -28 -41 -10 -52 6 -4 8 -16 5
-27 -4 -12 0 -27 10 -38 15 -17 14 -20 -9 -45 -30 -32 -35 -80 -10 -89 14 -5
16 -16 11 -59 -4 -42 -1 -57 14 -76 20 -25 26 -76 9 -86 -5 -3 -10 -26 -10
-50 0 -38 3 -44 28 -53 l27 -9 -34 -21 c-19 -12 -38 -19 -42 -17 -4 3 -13 -3
-20 -13 -13 -15 -12 -16 4 -3 27 21 20 2 -13 -36 -16 -18 -30 -40 -30 -47 0
-8 -10 -20 -22 -28 -21 -14 -24 -13 -55 24 -33 40 -45 77 -20 61 6 -4 1 7 -13
24 -14 17 -28 29 -32 26 -4 -2 -5 2 -2 10 3 9 -9 30 -28 50 -45 47 -104 143
-100 163 2 9 -1 13 -7 9 -7 -3 -8 0 -5 9 3 8 -6 34 -20 58 -14 24 -26 39 -26
33 0 -5 9 -23 20 -40 11 -16 20 -34 20 -40 0 -17 -48 60 -100 161 -28 54 -57
105 -65 114 -8 9 -21 42 -29 74 -9 31 -24 72 -35 89 -11 18 -29 66 -41 107
-35 121 -67 231 -84 285 -8 28 -15 66 -15 85 1 68 -8 145 -18 165 -11 21 -16
53 -14 95 1 19 3 22 10 11 6 -10 8 0 4 27 -4 32 -1 47 11 61 15 16 15 22 5 40
-11 17 -10 24 8 49 19 26 20 32 8 49 -15 21 -16 85 -2 76 4 -2 7 -2 7 1 0 2 3
13 6 23 5 15 4 15 -5 3 -13 -18 -13 -3 -1 25 6 13 9 15 9 5 1 -8 8 -2 16 14
19 37 19 45 -1 20 -15 -18 -15 -17 -10 16 3 19 23 71 45 115 21 44 44 100 50
125 14 53 12 48 90 212 34 70 72 152 86 183 13 31 42 73 64 94 21 20 41 46 44
57 4 18 5 18 6 -1 1 -35 -29 -149 -49 -183 -11 -18 -20 -44 -20 -57 0 -13 -14
-59 -31 -102 -16 -43 -34 -98 -39 -123 -8 -42 -17 -77 -55 -225 -8 -33 -17
-73 -20 -88 -3 -15 -10 -25 -16 -22 -6 4 -7 -9 -4 -37 4 -33 3 -39 -5 -23 -8
16 -9 11 -6 -23 2 -24 0 -40 -5 -36 -6 3 -7 -12 -4 -38 3 -33 3 -37 -4 -18 -7
19 -9 20 -10 7 -1 -22 27 -84 42 -94 6 -3 7 -1 3 5 -8 14 3 15 23 3 10 -7 13
-23 8 -63 -3 -29 -3 -47 0 -39 4 10 7 10 13 1 4 -7 16 -9 28 -6 23 8 37 54 27
87 -4 13 -3 19 2 16 6 -4 9 14 7 46 -2 49 -2 50 5 12 6 -30 8 -15 9 65 2 131
4 150 20 175 11 17 12 12 8 -37 -5 -46 -2 -61 14 -80 18 -22 20 -22 46 -8 15
8 29 22 32 30 3 9 -2 7 -12 -5 -15 -19 -15 -19 -15 10 2 93 10 122 37 135 25
11 26 11 12 -7 -8 -11 -3 -6 12 11 15 16 35 45 43 63 20 41 38 38 46 -8 l6
-34 2 31 c2 54 -40 74 -57 27 -6 -16 -17 -37 -27 -48 l-16 -20 9 20 c6 11 17
48 25 82 9 34 25 81 36 105 28 62 41 107 41 139 0 15 4 30 9 33 4 3 11 19 14
36 5 23 12 30 30 30 13 0 32 -6 42 -14 17 -13 17 -16 -13 -81 -18 -37 -32 -74
-32 -82 0 -8 -7 -27 -15 -44 -21 -39 -24 -72 -29 -263 -4 -143 -3 -163 14
-197 11 -21 25 -41 32 -45 10 -6 10 -5 1 7 -11 13 -9 15 10 15 19 -1 22 5 25
42 2 24 -1 49 -7 56 -6 6 -13 31 -17 54 -7 42 -6 42 25 42 23 0 31 -4 31 -18
0 -10 6 -27 14 -38 12 -15 18 -17 33 -8 10 6 21 22 24 35 4 13 7 -11 6 -54 -1
-72 -2 -76 -13 -45 -25 75 -70 32 -59 -56 l7 -53 -31 -5 c-17 -2 -31 0 -31 5
0 6 -2 8 -5 5 -10 -10 17 -55 39 -67 22 -12 82 -53 104 -71 8 -7 12 -7 12 -1
0 6 -12 17 -27 25 -26 14 -26 15 -6 16 28 0 43 -26 36 -65 -3 -20 -1 -26 5
-17 6 9 13 2 25 -28 16 -42 10 -51 -17 -24 -9 8 -16 11 -16 5 0 -18 37 -31 68
-25 26 5 32 2 46 -24 22 -42 20 -52 -5 -22 -17 21 -19 22 -10 3 6 -12 23 -30
38 -41 51 -34 108 4 70 46 -40 44 -76 182 -47 182 5 0 21 -21 34 -47 14 -27
36 -60 49 -74 24 -25 24 -26 5 -38 -23 -14 -22 -72 2 -78 12 -4 12 -3 2 5 -8
5 -12 22 -10 38 2 23 9 30 32 34 41 7 50 39 23 81 -36 54 -76 122 -91 154 -25
52 -74 208 -79 253 -5 39 -3 43 13 39 34 -9 42 7 40 74 -5 130 6 233 26 250
23 19 27 4 16 -58 -15 -87 -8 -354 12 -438 25 -103 96 -306 119 -338 14 -21
26 -28 43 -24 16 3 24 -2 27 -15 4 -14 14 -18 44 -16 l38 1 -38 4 -39 4 6 42
c4 33 3 37 -4 17 -9 -23 -9 -23 -6 7 1 18 0 31 -2 28 -7 -7 -32 15 -32 27 0 6
8 4 17 -3 13 -11 13 -8 -2 12 -11 15 -23 25 -27 22 -4 -2 -5 3 -2 11 3 9 1 16
-5 16 -6 0 -8 7 -4 17 4 10 2 14 -5 9 -11 -7 -12 -4 -35 94 -40 173 -46 209
-46 267 1 56 4 64 28 79 l26 17 -22 -25 c-13 -13 -23 -28 -23 -33 0 -4 14 10
31 31 17 22 38 42 47 46 14 5 15 7 2 7 -9 1 -21 -4 -28 -11 -14 -14 -14 -12
-17 92 -1 36 3 74 10 85 7 11 16 43 21 70 4 28 9 55 10 60 1 6 2 17 3 25 3 31
21 -14 20 -50 -1 -42 15 -145 28 -180 5 -14 7 -56 4 -95 -5 -62 -7 -66 -14
-36 -4 19 -9 32 -12 29 -3 -2 0 -20 5 -39 6 -18 11 -50 11 -69 l1 -35 9 30 c7
25 7 23 5 -15 -7 -87 42 -275 80 -311 25 -24 33 -44 11 -34 -6 4 7 -11 29 -32
57 -53 65 -102 23 -138 -17 -14 -26 -25 -21 -25 5 0 21 11 35 24 22 21 25 30
20 63 -3 21 -10 44 -16 51 -17 22 17 14 53 -13 18 -13 38 -21 44 -18 6 4 3 -3
-6 -14 -24 -26 -23 -30 10 -47 24 -12 31 -12 62 5 19 10 31 18 27 19 -4 0 -21
-7 -36 -15 -23 -12 -32 -12 -46 -1 -16 12 -16 15 -1 44 22 42 20 85 -5 113
l-20 24 17 -28 c9 -15 14 -30 12 -33 -10 -9 -60 89 -74 146 -8 30 -18 64 -23
75 -26 56 -69 294 -63 348 7 62 52 14 52 -57 0 -29 6 -61 14 -71 12 -17 11
-20 -7 -30 -12 -6 -23 -19 -24 -30 -3 -17 -1 -16 7 3 19 44 60 19 60 -37 1
-28 7 -41 28 -55 l27 -19 -22 24 c-13 14 -23 38 -23 54 0 16 -7 37 -17 47 -15
17 -15 18 9 18 20 0 27 -7 36 -39 7 -21 12 -47 12 -57 0 -11 7 -28 15 -38 8
-11 15 -31 15 -45 0 -37 37 -93 58 -89 24 5 26 40 7 99 -16 46 -27 104 -19 96
2 -2 35 -52 74 -113 38 -60 86 -123 106 -140 19 -18 31 -34 27 -36 -4 -3 -2
-3 5 -1 8 1 20 3 28 3 9 0 12 4 9 10 -3 6 1 7 9 4 9 -3 16 -1 16 4 0 6 18 21
40 33 22 12 38 24 36 27 -2 2 -21 -7 -42 -20 l-37 -24 -46 48 c-35 37 -45 55
-43 74 3 21 -7 36 -46 73 -27 25 -57 62 -67 81 -16 32 -13 31 39 -22 31 -31
65 -76 76 -100 11 -24 20 -38 20 -32 0 24 -41 103 -58 109 -9 3 -34 26 -54 51
-21 24 -41 44 -45 44 -4 -1 -10 7 -11 17 -2 10 -14 48 -27 84 -16 45 -22 80
-19 110 3 30 2 38 -4 24 -8 -18 -9 -17 -14 8 -3 15 -1 27 3 27 5 0 9 10 9 23
0 13 3 27 8 33 4 5 0 2 -9 -7 -14 -16 -16 -13 -28 35 -11 48 -15 301 -5 318 3
4 16 8 29 8 27 0 34 -30 35 -145 0 -152 25 -224 64 -185 12 12 13 24 6 55 -5
22 -9 72 -8 110 0 39 3 59 5 45 5 -27 38 -155 55 -210 5 -19 15 -63 21 -97 7
-34 15 -65 20 -69 4 -4 7 -15 7 -25 0 -9 7 -30 15 -45 8 -16 15 -37 15 -46 0
-10 11 -41 24 -70 39 -85 56 -125 56 -135 0 -15 41 -87 74 -128 22 -28 26 -37
13 -32 -11 4 -16 3 -12 -4 4 -5 16 -7 27 -3 14 4 18 2 14 -5 -4 -6 0 -11 9
-11 9 0 22 -15 30 -32 8 -18 14 -26 15 -17 0 9 -9 28 -21 43 -11 14 -17 26
-12 26 4 0 13 8 20 19 9 15 6 26 -17 60 -15 24 -31 42 -36 40 -12 -3 -46 69
-42 89 2 10 13 18 25 20 20 3 21 1 10 -27 -8 -21 -8 -36 0 -53 10 -21 11 -19
6 12 -3 27 1 43 21 69 26 35 34 57 17 46 -5 -3 -12 -1 -16 5 -3 5 -18 10 -33
10 -15 0 -38 7 -50 16 -26 18 -62 84 -62 113 0 19 2 19 44 -5 24 -14 56 -40
70 -58 30 -40 72 -52 86 -25 18 33 11 77 -16 106 l-26 28 21 -29 c12 -16 21
-40 21 -54 0 -23 -3 -20 -30 21 -17 26 -30 56 -30 67 0 10 -5 22 -10 25 -6 3
-7 17 -4 31 5 18 -3 38 -28 77 -72 110 -103 385 -60 547 5 19 21 60 35 91 15
31 27 64 27 74 0 10 19 36 42 58 38 36 42 38 49 21 6 -16 8 -16 8 -2 1 9 -4
29 -9 43 -6 16 -7 33 -1 44 15 28 298 130 321 116 5 -3 10 -2 10 3 0 6 10 8
23 5 17 -4 19 -2 7 6 -12 8 -9 12 13 20 40 16 54 13 31 -5 -19 -15 -19 -15 1
-5 33 15 67 58 63 78 -2 10 -10 17 -17 15 -6 -1 -38 -4 -69 -7 -31 -2 -94 -18
-139 -34 -46 -17 -110 -35 -144 -41 -34 -6 -89 -20 -123 -31 -134 -44 -285
-77 -328 -73 -36 3 -39 2 -18 -6 20 -8 17 -9 -18 -5 -27 4 -41 2 -37 -4 8 -14
-32 -38 -112 -67 -37 -14 -88 -35 -113 -48 -25 -13 -67 -31 -95 -40 -51 -16
-194 -105 -275 -171 -144 -116 -182 -134 -209 -101 -17 21 -4 42 47 75 50 32
112 88 112 101 0 21 32 39 59 34 37 -8 76 13 148 79 32 29 78 65 103 79 53 31
84 61 110 105 15 25 27 32 56 35 30 2 41 9 54 33 11 20 26 31 45 33 16 2 46
18 66 36 21 18 50 38 64 46 23 12 27 12 41 -8 19 -28 27 -28 71 2 19 14 40 23
47 20 6 -2 22 6 36 17 l25 21 -27 -16 c-34 -20 -37 -11 -5 15 23 19 98 45 157
53 124 18 202 37 250 60 30 14 71 26 90 26 19 0 54 9 78 20 38 17 42 22 42 55
0 101 149 148 520 165 118 6 258 16 310 24 57 8 137 11 200 9 58 -3 170 -5
250 -4z m295 1 c-14 -7 3 -9 53 -7 39 1 73 -2 75 -7 4 -12 167 -27 187 -16 26
14 154 25 147 13 -4 -6 8 -10 31 -11 44 0 132 -36 132 -54 0 -7 -5 -20 -10
-28 -8 -13 -10 -13 -10 1 0 9 -10 24 -22 35 -23 19 -23 19 -6 -1 23 -29 25
-56 4 -87 -20 -31 -36 -36 -36 -13 0 8 6 15 14 15 7 0 20 8 27 18 11 14 11 15
-1 5 -8 -7 -29 -13 -47 -13 -28 0 -37 -6 -51 -31 -9 -17 -25 -41 -34 -53 -15
-18 -19 -19 -28 -6 -5 9 -10 10 -10 3 0 -6 -3 -19 -7 -29 -5 -14 -2 -16 15
-12 26 7 26 9 7 -35 -15 -37 -53 -69 -95 -82 -14 -4 -43 -20 -64 -36 -22 -16
-48 -29 -57 -29 -10 0 -34 -16 -54 -37 -30 -31 -35 -33 -35 -15 0 11 6 23 13
25 6 3 -2 6 -18 6 -32 1 -75 -23 -75 -41 0 -7 9 -2 20 10 27 28 36 28 16 0 -9
-12 -16 -34 -16 -49 0 -14 -8 -37 -19 -50 -10 -13 -22 -40 -26 -59 -10 -47
-37 -99 -43 -82 -2 7 -1 38 3 67 5 40 10 52 20 49 14 -6 55 61 55 88 0 7 -9
-6 -20 -29 -10 -24 -23 -43 -28 -43 -12 0 -22 25 -21 48 1 11 4 8 10 -8 6 -17
7 -7 3 32 -3 35 -1 63 7 75 9 15 8 26 -6 54 -10 19 -24 42 -33 51 -16 19 -15
20 41 32 15 4 27 2 27 -4 0 -13 91 -13 127 1 15 6 38 20 50 31 12 12 42 26 67
32 l44 12 -28 16 c-25 14 -27 14 -24 -1 3 -10 -7 -21 -30 -32 l-33 -15 28 39
28 39 -19 38 c-11 21 -29 41 -40 45 -19 6 -25 17 -21 39 1 5 -5 4 -13 -4 -17
-13 -22 -25 -7 -16 5 3 12 -1 15 -9 5 -13 2 -14 -16 -4 -20 11 -68 13 -158 6
l-35 -2 -7 55 c-7 58 5 81 41 79 12 0 11 -3 -4 -9z m368 -7 c-7 -2 -21 -2 -30
0 -10 3 -4 5 12 5 17 0 24 -2 18 -5z m-396 -128 c11 -8 8 -13 -17 -22 -34 -13
-35 -12 -17 35 9 26 13 30 16 16 2 -10 10 -23 18 -29z m785 -8 c9 -1 14 -5 12
-9 -3 -4 0 -8 5 -8 27 0 7 -40 -35 -71 -25 -19 -63 -49 -84 -66 -20 -18 -43
-33 -49 -33 -20 0 -12 59 15 113 39 76 53 90 89 82 16 -3 38 -7 47 -8z m-522
-35 l12 -27 -26 24 c-28 27 -34 43 -12 35 7 -3 19 -17 26 -32z m574 32 c20 -8
21 -30 1 -38 -8 -3 -15 -1 -15 3 0 5 -3 16 -6 25 -7 18 -4 19 20 10z m-4696
-21 l27 -7 -25 -8 c-21 -6 -19 -7 12 -5 20 2 34 -1 32 -5 -6 -10 42 -22 61
-15 17 7 105 -29 105 -43 0 -15 -15 -19 -69 -21 -34 -2 -56 -8 -67 -20 -14
-16 -14 -19 8 -33 12 -8 37 -18 53 -21 58 -13 59 -13 44 -32 -12 -15 -12 -16
6 -8 11 4 32 10 48 13 40 7 34 30 -10 35 -21 2 -7 2 32 0 68 -5 128 -22 77
-23 -12 0 -44 -11 -71 -24 -41 -21 -53 -23 -82 -15 -25 8 -56 7 -117 -4 -45
-8 -80 -12 -78 -9 3 2 -6 26 -19 53 -14 27 -25 59 -26 71 -1 22 -1 22 -8 -2
-5 -19 -8 -21 -13 -9 -3 9 -2 22 3 30 5 8 9 35 9 60 0 50 7 62 28 54 8 -3 26
-8 40 -12z m89 -29 c-3 -3 -12 -4 -19 -1 -8 3 -5 6 6 6 11 1 17 -2 13 -5z
m4686 -66 c-29 -51 -290 -308 -313 -308 -6 0 -10 11 -10 25 0 19 12 33 53 59
55 36 87 67 106 103 6 12 28 31 49 43 20 12 52 41 70 66 40 53 74 63 45 12z
m-4300 -4 c19 -7 23 -24 6 -24 -17 0 -49 20 -49 31 0 6 6 8 13 5 6 -3 20 -9
30 -12z m3232 -63 c-27 -53 -29 -40 -5 39 13 40 15 42 18 18 2 -15 -4 -40 -13
-57z m182 6 c2 -3 -12 -8 -32 -11 -35 -7 -42 -14 -27 -31 5 -6 0 -39 -11 -75
-16 -51 -22 -61 -28 -45 -17 44 -5 136 23 172 8 10 61 3 75 -10z m-3272 0 c16
-13 15 -14 -14 -9 -17 2 -34 8 -37 13 -8 14 30 10 51 -4z m9240 -16 c-3 -6
-11 -8 -17 -5 -6 4 -5 9 3 15 16 10 23 4 14 -10z m-5455 -8 c-1 -10 -7 -29
-15 -43 -8 -14 -14 -37 -15 -52 0 -35 -21 -87 -27 -70 -5 12 2 44 28 145 10
38 29 51 29 20z m95 -9 c-25 -19 -35 -17 -35 5 0 14 6 17 27 13 25 -5 25 -6 8
-18z m269 -29 c4 -10 -8 -21 -36 -35 l-42 -20 34 35 c19 19 35 35 36 35 1 0 4
-7 8 -15z m-4634 -85 c3 -1 -5 -5 -17 -10 -14 -6 -23 -18 -23 -30 0 -12 -10
-25 -26 -32 -18 -8 -24 -17 -20 -31 3 -12 -2 -21 -17 -26 -36 -14 -50 -2 -42
33 4 17 7 37 8 44 0 8 10 17 22 22 11 4 27 15 34 24 12 14 47 17 81 6z m3995
0 c-3 -5 -16 -10 -28 -9 -20 1 -20 2 3 9 14 4 26 8 28 9 2 1 0 -3 -3 -9z m155
-59 c-1 -14 -2 -14 -11 2 -5 9 -15 17 -22 17 -9 0 -9 -2 0 -8 7 -5 18 -35 24
-67 10 -56 10 -61 -11 -75 -11 -8 -38 -30 -58 -49 -46 -42 -81 -65 -88 -59 -2
3 13 28 36 56 46 58 48 71 20 97 -28 26 -22 55 19 82 19 13 30 23 26 23 -4 0
0 9 11 21 l19 21 17 -22 c10 -12 18 -30 18 -39z m-568 -173 c-2 -32 -8 -58
-13 -58 -11 0 -12 58 -2 126 6 44 7 46 13 19 3 -16 4 -56 2 -87z m75 30 c-3
-8 -6 -5 -6 6 -1 11 2 17 5 13 3 -3 4 -12 1 -19z m783 -31 c67 -23 90 -44 90
-83 0 -29 -5 -38 -32 -52 -17 -9 -47 -31 -67 -48 -32 -28 -104 -74 -116 -74
-16 0 0 22 25 35 35 18 39 45 10 63 -23 14 -25 38 -8 94 9 31 9 44 0 59 -11
17 -9 19 25 19 21 0 54 -6 73 -13z m-2852 -115 c-9 -23 -16 -28 -35 -24 -30 6
-29 16 4 40 35 25 44 20 31 -16z m-1664 22 c9 -3 16 -9 16 -13 0 -11 -99 -111
-109 -111 -5 0 -14 -7 -21 -16 -11 -12 -11 -18 2 -30 11 -12 23 -13 56 -5 23
5 42 5 42 1 0 -4 -26 -21 -59 -38 -32 -18 -64 -39 -71 -47 -20 -24 -33 -6 -16
21 18 26 21 70 6 79 -17 11 -11 53 8 59 10 3 40 28 67 56 52 52 54 54 79 44z
m509 -59 c-10 -13 -21 -25 -25 -25 -4 0 -19 -18 -32 -39 -23 -36 -60 -60 -72
-48 -8 8 56 77 100 109 48 34 52 35 29 3z m1124 -29 c-1 -19 -4 -33 -7 -31 -3
2 -13 -38 -23 -88 -21 -104 -35 -129 -64 -106 -17 13 -17 13 -4 -4 8 -10 20
-16 28 -13 11 5 13 -6 8 -55 -3 -34 -8 -66 -12 -72 -4 -6 -9 -52 -13 -101 -4
-54 -9 -81 -12 -66 -17 70 -22 156 -16 260 6 100 11 124 37 180 17 36 31 71
31 78 0 22 20 52 35 52 9 0 13 -11 12 -34z m-56 -3 c-8 -15 -10 -15 -11 -2 0
17 10 32 18 25 2 -3 -1 -13 -7 -23z m-137 -151 c-4 -15 -8 -30 -9 -34 -2 -5
-3 -13 -4 -20 0 -6 -4 -9 -7 -5 -3 3 0 29 7 57 7 29 15 47 17 41 2 -7 1 -24
-4 -39z m-1454 -53 c0 -10 -60 -17 -66 -8 -2 5 8 15 23 23 26 13 42 8 43 -15z
m330 8 c0 -34 -28 -67 -56 -67 -28 0 -31 12 -8 31 9 7 20 23 25 36 11 30 39
30 39 0z m9940 -39 c0 -21 -1 -21 -20 -3 -15 14 -17 21 -8 26 17 11 28 2 28
-23z m-5980 -7 c22 -6 20 -8 -24 -25 -38 -14 -63 -17 -114 -13 -92 9 -99 21
-21 36 53 11 125 11 159 2z m5817 -28 c-3 -3 -11 -2 -17 2 -8 5 -7 11 2 22 12
15 13 14 16 -1 2 -10 1 -20 -1 -23z m127 -24 c31 -28 56 -56 56 -63 0 -7 15
-30 33 -52 18 -21 41 -64 50 -95 15 -49 21 -57 47 -62 29 -6 42 -16 93 -77 25
-29 36 -60 21 -60 -3 0 -17 9 -31 20 -14 11 -33 20 -42 20 -22 0 -79 61 -126
135 -21 33 -46 69 -56 80 -10 11 -24 38 -31 60 -8 24 -23 44 -37 52 -24 11
-59 93 -41 93 5 0 34 -23 64 -51z m-10196 -21 c-3 -7 -24 -22 -48 -35 -55 -29
-54 -28 -41 -51 8 -16 6 -21 -15 -31 -49 -22 -67 -12 -39 25 8 10 15 29 15 42
0 12 1 22 3 22 1 0 27 9 57 20 67 23 73 23 68 8z m684 -75 c0 -27 0 -55 -1
-63 -1 -8 -2 -24 -2 -35 0 -11 -5 -106 -10 -212 -7 -126 -7 -204 0 -227 5 -20
6 -36 1 -36 -11 0 -20 30 -26 83 -18 176 -24 278 -19 312 4 22 10 77 15 122 5
46 12 87 15 93 14 23 25 7 27 -37z m9424 1 c0 -21 4 -48 9 -58 5 -12 5 -17 -2
-13 -17 11 -46 85 -39 102 11 29 31 10 32 -31z m-6227 16 c-8 -5 -39 -18 -69
-30 -51 -20 -53 -20 -37 -2 9 10 17 25 17 33 0 11 12 13 52 10 34 -2 47 -6 37
-11z m281 -15 c-25 -19 -36 -22 -42 -12 -5 8 2 16 20 24 46 20 58 14 22 -12z
m-61 -8 c23 -28 -60 -83 -334 -222 -82 -42 -171 -83 -197 -91 -72 -22 -177
-109 -194 -159 -13 -39 -93 -141 -161 -205 -119 -112 -255 -227 -331 -280 -96
-67 -379 -221 -479 -261 -43 -17 -82 -34 -88 -39 -5 -4 -35 -17 -65 -28 -30
-11 -86 -35 -125 -52 -104 -48 -223 -86 -338 -110 -56 -11 -133 -29 -172 -39
-38 -10 -92 -22 -120 -26 -27 -3 -75 -13 -106 -21 -31 -7 -96 -16 -145 -19
-49 -3 -125 -15 -169 -26 -75 -20 -126 -31 -202 -44 -21 -4 -33 -2 -33 5 0 6
6 8 12 4 7 -4 6 1 -4 11 -9 10 -27 17 -40 17 -44 0 -225 -63 -273 -95 -27 -18
-56 -36 -64 -42 -9 -5 -20 -16 -24 -22 -19 -31 -48 -1 -46 47 0 10 3 9 10 -5
7 -15 8 -10 6 22 -1 23 2 39 7 36 5 -3 7 0 4 7 -2 7 6 24 19 38 12 13 20 30
16 36 -3 6 -3 8 2 4 4 -4 28 10 51 32 24 22 48 40 54 40 19 0 124 52 153 77
16 12 41 26 55 29 15 4 51 19 79 35 30 17 68 29 88 29 20 0 61 9 92 20 32 11
68 20 82 20 13 0 47 6 75 14 28 8 130 33 226 56 274 65 417 124 624 254 49 31
93 56 98 56 5 0 91 41 191 91 210 104 529 299 560 341 43 58 171 125 347 183
47 16 112 43 145 61 33 17 130 55 215 83 85 28 209 73 275 100 125 52 201 64
224 38z m-857 -74 c-21 -17 -24 -11 -9 20 10 22 13 23 18 9 4 -10 1 -22 -9
-29z m-2685 -118 c-2 -58 -8 -110 -13 -115 -5 -5 -6 36 -2 103 7 126 6 117 14
117 3 0 4 -47 1 -105z m9592 65 c11 -24 11 -24 -3 -6 -9 11 -16 24 -16 30 0
12 5 7 19 -24z m135 -81 c-11 -19 -34 -8 -40 19 -3 15 -8 36 -11 47 -3 12 6 5
26 -19 17 -21 28 -42 25 -47z m-185 -50 c18 -51 13 -54 -19 -14 -35 45 -36 45
-11 45 12 0 23 -11 30 -31z m-905 12 c4 -5 3 -16 0 -25 -6 -15 -8 -15 -19 1
-13 18 -11 33 5 33 5 0 11 -4 14 -9z m1201 -82 c15 -28 6 -53 -16 -44 -14 5
-49 85 -49 109 0 14 50 -35 65 -65z m-10148 -6 c-3 -16 -15 -53 -27 -83 l-21
-55 7 59 c5 52 26 106 41 106 3 0 3 -12 0 -27z m2093 11 c0 -3 -14 -10 -31
-16 -23 -8 -29 -16 -27 -32 3 -24 47 -36 91 -25 29 8 97 1 97 -10 0 -3 -10
-11 -22 -16 -15 -7 -23 -19 -23 -35 0 -24 -3 -25 -48 -22 -90 6 -187 66 -187
116 0 21 6 26 43 34 48 11 107 15 107 6z m-1795 -112 c-3 -53 -5 -126 -4 -162
0 -47 -3 -62 -11 -54 -12 12 -15 208 -4 280 11 77 23 36 19 -64z m9229 43 c-4
-8 -10 -15 -15 -15 -4 0 -6 7 -3 15 4 8 10 15 15 15 4 0 6 -7 3 -15z m-28 -27
c1 -2 -6 -14 -16 -28 -18 -23 -20 -24 -20 -4 0 11 -6 26 -12 33 -11 10 -7 11
16 7 16 -3 30 -7 32 -8z m-7161 -38 c-47 -22 -59 -24 -50 -9 9 14 44 28 70 28
13 0 6 -7 -20 -19z m7890 0 c3 -5 -1 -10 -9 -10 -9 0 -16 5 -16 10 0 6 4 10 9
10 6 0 13 -4 16 -10z m362 -52 c-3 -8 -6 -5 -6 6 -1 11 2 17 5 13 3 -3 4 -12
1 -19z m-1677 -102 c0 -3 -4 -8 -10 -11 -5 -3 -10 -1 -10 4 0 6 5 11 10 11 6
0 10 -2 10 -4z m136 -23 c-7 -17 -37 -66 -98 -161 -57 -89 -160 -192 -192
-192 -14 0 -26 5 -26 10 0 6 25 41 55 77 37 45 55 76 55 94 0 16 14 46 33 70
35 46 66 66 52 33 -17 -41 -18 -64 -2 -64 16 0 50 48 79 112 10 22 24 38 34
38 11 0 14 -5 10 -17z m1567 -28 c-4 -12 -9 -13 -19 -4 -8 6 -14 18 -14 26 0
11 4 11 20 3 11 -6 17 -16 13 -25z m-70 -71 c-7 -20 -10 -19 -43 28 -42 57
-37 69 9 24 22 -22 37 -45 34 -52z m-1483 -38 c-14 -14 -24 0 -16 21 6 15 8
15 16 3 6 -9 5 -19 0 -24z m-8953 -43 c-3 -10 -5 -4 -5 12 0 17 2 24 5 18 2
-7 2 -21 0 -30z m-356 -60 c-8 -15 -10 -10 -11 23 0 22 3 44 8 48 11 12 14
-52 3 -71z m653 -5 c4 -22 3 -38 -2 -38 -11 0 -22 34 -22 70 0 34 16 13 24
-32z m445 30 c19 -51 20 -70 2 -33 -21 42 -24 55 -16 55 3 0 9 -10 14 -22z
m-1343 -89 l-16 -23 0 35 c0 43 11 58 23 30 7 -13 4 -26 -7 -42z m9464 -39 c0
-22 -1 -23 -24 -14 -13 5 -14 9 -5 20 16 20 29 17 29 -6z m-9477 -43 c-4 -6
-10 -27 -14 -47 -7 -35 -7 -35 -8 10 0 25 2 56 6 69 l6 25 9 -23 c4 -13 5 -28
1 -34z m744 38 c9 -24 0 -25 -26 -4 -23 19 -23 19 -2 19 12 0 24 -7 28 -15z
m10523 -80 c8 -10 9 -15 1 -15 -6 0 -11 4 -11 9 0 5 -15 19 -34 30 -19 12 -37
28 -40 37 -6 16 60 -32 84 -61z m-9874 14 c4 -8 1 -8 -14 0 -12 6 -24 16 -28
22 -4 8 -1 8 14 0 12 -6 24 -16 28 -22z m9506 -112 c23 -35 71 -101 106 -147
91 -120 84 -147 -15 -58 -75 67 -127 147 -154 241 -14 49 17 31 63 -36z m157
-56 c9 -6 10 -11 2 -15 -13 -8 -31 1 -31 15 0 11 11 11 29 0z m-1710 -192
c-29 -18 -36 -10 -17 21 11 17 14 18 21 4 6 -11 5 -19 -4 -25z m821 -49 c0 -5
-7 -7 -15 -4 -8 4 -15 8 -15 10 0 2 7 4 15 4 8 0 15 -4 15 -10z m896 -25 c1 0
-2 -9 -6 -20 -6 -18 -8 -17 -23 12 -23 43 -21 50 6 27 12 -10 23 -19 23 -19z
m-1860 1 c7 -18 -55 -115 -128 -201 -76 -90 -84 -116 -52 -154 31 -37 30 -40
-6 -74 -33 -32 -39 -57 -13 -57 26 0 53 30 53 59 0 22 8 29 53 44 28 10 66 21
82 26 17 4 41 11 53 15 22 7 23 6 17 -16 -8 -22 -106 -137 -245 -284 -37 -39
-77 -93 -90 -120 -29 -60 -97 -161 -114 -167 -25 -10 -39 10 -32 44 4 19 11
57 16 86 7 44 22 68 94 160 47 59 86 114 86 121 0 8 -16 12 -45 12 -44 0 -45
0 -45 -33 0 -34 -15 -54 -56 -75 -18 -10 -20 -7 -22 26 -3 58 -12 90 -36 133
l-23 39 211 215 c116 118 216 215 223 215 8 0 16 -6 19 -14z m-7420 -128 c4
-6 3 -8 -3 -5 -5 4 -10 -7 -10 -24 0 -40 -93 -222 -140 -274 -20 -22 -33 -32
-30 -23 3 10 2 20 -4 24 -6 3 -7 13 -4 23 4 9 11 34 17 55 11 50 107 211 133
224 27 14 33 14 41 0z m7953 -33 c2 -2 1 -11 -3 -20 -4 -11 -13 -14 -33 -9
-36 9 -37 10 -29 30 5 12 13 14 34 9 15 -4 29 -8 31 -10z m-8194 -26 c11 -17
-1 -21 -15 -4 -8 9 -8 15 -2 15 6 0 14 -5 17 -11z m-21 -18 c11 -18 -14 -60
-66 -113 -30 -29 -87 -100 -128 -157 -76 -108 -154 -202 -294 -355 -139 -154
-135 -149 -151 -136 -22 18 -18 33 15 65 17 17 37 51 45 79 10 33 30 65 56 92
22 22 54 62 72 87 18 25 55 73 82 106 71 84 155 199 165 224 13 34 73 87 116
102 46 17 81 19 88 6z m9030 -23 c3 -13 6 -27 6 -33 -1 -15 -30 27 -30 42 0
22 17 15 24 -9z m255 -37 c1 -10 -3 -9 -13 4 -8 11 -11 26 -8 34 4 12 7 11 13
-5 4 -10 8 -25 8 -33z m-1182 14 c-4 -8 -11 -15 -17 -15 -7 0 -7 6 0 21 13 23
26 19 17 -6z m1003 -10 c0 -5 -5 -3 -10 5 -5 8 -10 20 -10 25 0 6 5 3 10 -5 5
-8 10 -19 10 -25z m-1004 -120 c-31 -64 -56 -121 -56 -126 0 -12 -80 -129 -88
-129 -10 0 11 56 28 75 10 11 33 52 50 90 85 186 105 224 113 216 6 -6 -14
-57 -47 -126z m1323 104 c16 9 26 5 58 -22 63 -52 112 -112 104 -125 -8 -13
-70 47 -110 106 -12 17 -29 32 -36 32 -27 0 -26 -21 2 -54 15 -19 47 -60 70
-92 40 -56 96 -118 139 -156 30 -26 44 -47 36 -51 -15 -9 -51 13 -79 49 -41
55 -92 104 -109 104 -23 0 -16 -37 18 -85 17 -24 29 -47 26 -50 -7 -8 -150
150 -170 190 -6 11 -15 23 -21 26 -5 4 -16 24 -23 45 -11 33 -11 39 3 49 11 8
14 20 9 38 l-6 26 34 -20 c27 -16 39 -18 55 -10z m-10165 6 c-10 -8 -23 -15
-28 -15 -6 0 -1 7 10 15 10 8 23 15 28 15 6 0 1 -7 -10 -15z m9177 -21 c12
-14 11 -16 -5 -13 -11 2 -21 10 -24 17 -5 17 13 15 29 -4z m521 -24 c20 -45 0
-53 -25 -11 -16 27 -16 29 1 27 9 0 20 -8 24 -16z m-192 -5 c0 25 11 12 25
-28 11 -31 10 -33 -10 -30 -13 3 -24 17 -32 41 -10 33 -10 35 3 18 13 -19 14
-19 14 -1z m293 -5 c3 -11 1 -20 -4 -20 -5 0 -9 -7 -9 -16 0 -14 -3 -14 -15
-4 -18 15 -19 32 -3 48 17 17 25 15 31 -8z m85 -23 c9 4 13 1 10 -7 -7 -23
-26 -22 -39 2 -9 18 -9 21 1 11 7 -6 19 -9 28 -6z m-698 -69 c0 -17 -3 -18
-14 -8 -8 6 -12 18 -9 26 7 19 23 7 23 -18z m-160 -8 c-16 -30 -30 -33 -30 -7
0 29 7 37 26 30 10 -4 11 -10 4 -23z m559 -51 c-16 -10 -24 2 -34 51 l-7 35
27 -39 c22 -30 25 -40 14 -47z m523 -30 c62 -97 70 -111 59 -108 -18 6 -132
164 -121 167 6 2 10 16 11 30 1 26 1 26 8 -4 5 -17 24 -55 43 -85z m-942 49
c0 -18 -7 -55 -15 -82 -8 -27 -15 -75 -15 -108 0 -57 1 -58 28 -58 23 0 35 12
81 80 62 93 79 98 99 27 26 -91 93 -83 130 15 11 29 24 54 30 56 6 2 27 -30
46 -71 38 -79 110 -157 146 -157 32 0 24 30 -21 85 -40 48 -89 137 -89 163 0
7 15 12 40 12 34 0 40 3 40 22 0 12 3 18 8 14 4 -4 6 -10 4 -13 -2 -4 10 -12
27 -19 38 -16 58 -48 71 -112 16 -87 78 -191 173 -289 31 -33 38 -46 30 -54
-21 -21 -93 16 -156 81 -66 67 -110 84 -152 56 -37 -24 -46 -72 -28 -154 9
-40 12 -78 8 -89 -5 -10 -7 -25 -6 -33 1 -12 0 -12 -7 -1 -17 25 -52 -5 -52
-44 0 -26 -6 -39 -25 -51 -39 -25 -32 -56 19 -89 43 -27 43 -28 33 -62 -10
-32 -9 -37 13 -54 14 -11 36 -28 48 -39 13 -11 27 -20 32 -20 4 0 10 -7 14
-15 4 -10 -1 -15 -15 -15 -12 0 -17 4 -13 11 4 8 0 8 -14 0 -30 -16 -73 25
-116 109 -36 71 -57 83 -87 51 -27 -29 -50 -26 -83 8 -16 16 -38 32 -50 35
-12 3 -29 19 -39 36 -20 33 -51 39 -83 15 -34 -26 -50 -18 -64 30 -21 73 -6
204 30 280 33 70 37 97 15 115 -31 25 -49 7 -72 -74 -16 -56 -36 -98 -71 -145
-74 -102 -122 -193 -122 -232 0 -19 -8 -77 -19 -129 -10 -52 -24 -124 -31
-160 -6 -36 -25 -93 -42 -128 -22 -44 -28 -66 -21 -73 14 -14 44 -8 53 11 4 8
23 44 41 80 27 54 33 78 35 140 3 83 50 265 87 333 l22 42 3 -40 c2 -22 -13
-128 -32 -235 -59 -332 -66 -399 -46 -430 18 -26 38 15 44 88 7 74 32 231 44
276 10 38 32 46 32 13 0 -37 25 -53 55 -37 23 12 27 11 46 -8 11 -12 26 -22
33 -22 15 0 40 27 49 53 16 44 55 0 121 -138 32 -65 87 -103 122 -84 13 7 33
20 43 31 26 24 28 23 57 -11 13 -16 50 -44 82 -62 31 -18 51 -34 45 -36 -22
-8 -14 -58 15 -99 58 -80 49 -99 -24 -52 -93 59 -187 44 -187 -30 0 -17 -4
-29 -9 -26 -4 3 -8 -6 -8 -20 0 -46 162 -161 210 -149 36 9 25 50 -19 72 -47
24 -91 75 -91 104 0 18 -2 19 -10 7 -8 -13 -10 -13 -10 2 0 41 116 -18 190
-97 45 -48 76 -19 44 41 -19 35 -19 36 0 50 27 19 63 18 89 -3 17 -14 21 -27
19 -55 -2 -26 5 -51 22 -81 14 -24 26 -54 26 -66 0 -12 7 -33 16 -46 20 -30
15 -31 -36 -5 -22 11 -48 20 -60 20 -17 0 -20 -6 -20 -42 0 -28 3 -38 9 -29 6
10 10 10 16 1 14 -22 -5 -23 -62 -2 -32 12 -76 23 -98 24 -37 3 -40 1 -43 -24
-4 -33 -22 -36 -48 -7 -35 40 -116 99 -126 93 -14 -9 -1 -64 20 -81 15 -13 15
-14 0 -10 -23 8 -28 -1 -17 -31 10 -26 10 -26 -11 -7 -11 10 -18 21 -15 23 9
10 -48 62 -68 62 -33 0 -59 21 -78 65 -23 52 -38 64 -53 43 -11 -15 -5 -219 9
-285 8 -37 -8 -45 -25 -13 -9 16 -8 18 5 14 8 -4 15 -1 15 5 0 6 -7 11 -14 11
-10 0 -21 22 -32 58 -47 163 -59 180 -140 197 -28 5 -37 1 -73 -33 -45 -43
-57 -92 -22 -92 29 0 43 -23 27 -45 -18 -24 -66 -13 -66 15 0 23 -17 25 -55 8
-45 -20 -51 1 -25 81 l22 71 -31 29 c-17 16 -31 36 -31 45 0 34 -29 14 -69
-48 -78 -121 -282 -308 -308 -283 -3 4 9 28 26 55 37 58 38 68 9 83 -17 9 -20
9 -15 -4 3 -9 -8 -26 -34 -46 -40 -33 -55 -29 -19 4 27 25 90 128 90 148 0 33
-27 21 -105 -44 -44 -38 -85 -69 -91 -69 -6 0 -16 11 -22 24 -6 14 -21 26 -34
28 -19 2 -23 8 -21 34 2 19 -4 37 -12 44 -9 7 -16 11 -18 9 -1 -2 -9 -17 -17
-33 -9 -18 -24 -30 -38 -31 -22 -2 -22 -1 5 29 15 17 32 34 37 38 10 7 -10 38
-24 38 -5 0 -30 -22 -56 -50 -52 -54 -80 -62 -109 -30 l-18 20 -26 -24 c-15
-14 -41 -26 -61 -28 -29 -2 -35 0 -35 17 0 14 15 27 55 46 56 27 147 120 135
139 -3 5 -19 8 -34 7 -16 -1 -27 -5 -24 -9 2 -5 -1 -8 -6 -8 -18 0 -12 26 12
47 52 49 114 24 102 -41 -6 -30 -4 -36 11 -36 18 0 175 156 166 165 -3 3 -1 5
5 5 6 0 14 -8 17 -17 6 -15 8 -15 16 -3 6 8 10 10 10 4 0 -6 -17 -37 -38 -70
-49 -75 -54 -90 -37 -104 11 -9 18 -7 34 9 12 12 21 27 21 34 0 21 62 75 90
79 23 3 25 7 25 50 0 25 3 50 8 54 4 4 7 0 7 -9 0 -54 74 23 151 158 24 42 77
126 117 188 40 62 75 123 78 137 3 14 10 35 15 48 13 33 11 62 -5 62 -7 0 -19
-13 -25 -29 -10 -22 -17 -27 -36 -23 -37 7 -95 -42 -92 -78 2 -23 5 -26 16
-17 11 10 13 9 9 -3 -3 -10 -15 -14 -39 -11 -19 2 -67 4 -108 5 -43 0 -76 6
-78 12 -2 6 12 30 30 55 45 59 60 88 53 105 -7 19 -35 18 -75 -2 -58 -29 -60
-3 -5 71 150 205 264 384 264 415 0 19 -11 25 -35 20 -5 -1 -7 1 -3 5 4 4 2
19 -3 33 -6 15 -7 23 -3 19 4 -4 30 14 57 40 l49 48 -6 -38 c-8 -42 6 -69 29
-61 8 3 22 27 31 52 10 26 21 52 26 58 4 6 5 14 1 18 -4 3 8 3 26 0 23 -5 37
-2 51 11 17 16 24 16 47 6 23 -11 29 -10 40 5 7 10 13 23 13 30 0 15 39 64 51
64 5 0 9 -15 9 -32z m-90 5 c-1 -23 -23 -53 -39 -53 -7 0 -11 3 -9 8 32 66 48
81 48 45z m440 -49 c0 -8 -5 -12 -10 -9 -6 4 -8 11 -5 16 9 14 15 11 15 -7z
m-250 -13 c0 -3 -12 -19 -26 -36 -16 -19 -23 -23 -20 -12 3 11 9 29 12 42 4
15 11 22 20 18 8 -3 14 -8 14 -12z m70 -12 c0 -5 -7 -9 -15 -9 -15 0 -20 12
-9 23 8 8 24 -1 24 -14z m-880 -21 c0 -26 -6 -37 -30 -50 -17 -10 -33 -25 -37
-35 -11 -32 -60 -87 -93 -107 l-32 -18 36 53 c20 30 36 62 36 72 0 18 95 117
112 117 4 0 8 -15 8 -32z m-8315 2 c-10 -11 -15 -28 -12 -40 7 -28 -7 -33 -28
-10 -16 18 -16 20 9 44 30 31 58 36 31 6z m676 3 c10 -11 10 -14 2 -9 -9 5
-13 1 -13 -12 0 -10 -13 -28 -30 -40 -21 -16 -30 -31 -30 -51 0 -17 -14 -47
-35 -75 -38 -48 -65 -60 -65 -27 0 21 49 99 75 121 9 7 23 29 30 48 8 18 24
36 36 39 16 4 17 8 7 14 -8 5 -9 9 -2 9 6 0 18 -8 25 -17z m8062 -9 c-3 -8
-12 -13 -20 -10 -8 3 -17 6 -19 6 -3 0 -2 5 1 10 11 17 45 12 38 -6z m-7995
-43 c-15 -5 -21 7 -13 26 7 17 8 17 15 -2 4 -11 3 -22 -2 -24z m8542 9 c0 -5
-4 -10 -9 -10 -6 0 -13 5 -16 10 -3 6 1 10 9 10 9 0 16 -4 16 -10z m450 -94
c0 -5 -9 -1 -20 9 -11 10 -20 25 -20 34 0 12 6 9 20 -9 11 -14 20 -29 20 -34z
m-9330 3 c0 -20 -73 -79 -97 -79 -8 0 2 22 28 60 33 46 45 57 56 49 7 -7 13
-20 13 -30z m7976 -17 c-18 -16 -18 -16 -6 6 6 13 14 21 18 18 3 -4 -2 -14
-12 -24z m1844 -6 c0 -2 -7 -9 -15 -16 -12 -10 -15 -10 -15 4 0 9 7 16 15 16
8 0 15 -2 15 -4z m-1782 -39 c3 -16 1 -17 -17 -5 -25 16 -27 31 -4 26 10 -2
19 -11 21 -21z m1387 -33 c23 -20 48 -48 54 -61 l11 -25 -27 20 c-38 27 -103
102 -89 102 4 0 27 -16 51 -36z m-9308 -15 c11 0 13 -3 5 -6 -17 -7 -42 15
-41 36 0 11 3 9 9 -6 5 -13 17 -23 27 -24z m7813 26 c0 -8 -10 -19 -21 -26
-22 -11 -21 -3 4 29 12 16 17 15 17 -3z m-147 -44 c-9 -33 -57 -82 -71 -73
-10 7 -3 19 30 50 24 23 44 42 45 42 0 0 -1 -9 -4 -19z m367 -9 c0 -16 -32
-52 -46 -52 -20 0 -18 10 8 37 22 23 38 30 38 15z m-1100 -32 c-8 -5 -16 -8
-17 -6 -2 2 -1 11 3 20 5 13 10 14 18 6 8 -8 7 -13 -4 -20z m820 10 c-11 -20
-30 -28 -30 -12 0 11 22 32 32 32 5 0 4 -9 -2 -20z m-8034 -29 c-4 -6 -14 -11
-22 -11 -12 0 -13 4 -3 21 7 14 14 18 21 11 6 -6 7 -15 4 -21z m9351 -3 c4 -7
6 -25 5 -39 -2 -14 6 -36 17 -50 21 -24 21 -24 36 -5 15 19 16 19 48 -12 24
-23 42 -32 67 -32 19 0 46 -6 59 -13 21 -11 24 -19 26 -77 1 -36 5 -73 9 -82
12 -26 -17 -23 -42 5 -22 24 -103 118 -139 162 -25 29 -43 26 -43 -7 0 -32 64
-138 109 -183 23 -21 41 -46 41 -55 -1 -33 -193 199 -214 258 -22 64 -28 112
-15 128 14 17 25 18 36 2z m-9007 -38 c13 -9 13 -11 0 -20 -18 -12 -21 -12
-39 -1 -15 10 -7 31 12 31 7 0 19 -5 27 -10z m194 -4 c-3 -8 5 -21 18 -30 12
-9 17 -16 10 -16 -19 0 -55 37 -47 49 9 16 25 13 19 -3z m9101 -57 c-6 -9 -35
-1 -35 10 0 4 3 11 7 14 8 9 34 -13 28 -24z m-1455 -20 c-7 -11 -14 -19 -16
-16 -7 7 7 37 17 37 6 0 5 -9 -1 -21z m-8465 1 c3 -5 1 -10 -4 -10 -6 0 -11 5
-11 10 0 6 2 10 4 10 3 0 8 -4 11 -10z m8985 -106 c0 -31 -2 -34 -15 -20 -18
18 -19 28 -3 44 17 17 18 16 18 -24z m-8376 0 c20 -8 21 -34 1 -34 -20 0 -65
22 -65 32 0 9 41 11 64 2z m7703 -92 c-20 -26 -45 -56 -56 -66 -21 -19 -21
-19 -21 5 0 15 19 42 52 76 62 62 75 54 25 -15z m-1419 46 c-7 -19 -38 -22
-38 -4 0 10 9 16 21 16 12 0 19 -5 17 -12z m2616 -23 c3 -9 0 -15 -9 -15 -9 0
-12 6 -9 15 4 8 7 15 9 15 2 0 5 -7 9 -15z m117 -5 c22 0 46 -22 129 -116 56
-63 100 -118 96 -121 -10 -10 -276 234 -276 253 0 4 5 3 12 -4 7 -7 24 -12 39
-12z m-8625 -45 c-5 -15 -7 -15 -23 0 -14 14 -14 18 -2 25 18 12 34 -4 25 -25z
m5524 19 c0 -8 -4 -12 -10 -9 -5 3 -10 10 -10 16 0 5 5 9 10 9 6 0 10 -7 10
-16z m-5661 -13 c10 -6 10 -10 1 -16 -8 -5 -6 -13 7 -28 12 -14 6 -12 -19 7
-21 16 -38 32 -38 37 0 11 31 11 49 0z m-1192 -61 c10 -37 -1 -100 -17 -100
-5 0 -10 10 -12 23 -2 14 -10 22 -23 22 -16 0 -21 -8 -25 -44 -4 -40 -10 -49
-54 -80 -39 -28 -46 -31 -37 -14 6 12 11 29 11 38 0 10 11 30 25 47 14 16 25
37 25 47 0 10 17 29 38 42 22 14 38 34 40 48 5 29 17 17 29 -29z m8703 21 c0
-4 -17 -13 -37 -19 l-38 -11 29 24 c28 22 46 25 46 6z m-7407 -8 c-4 -10 -14
-24 -22 -31 -10 -9 -11 -11 -2 -6 9 5 12 3 7 -5 -5 -8 -15 -5 -32 11 -28 27
-30 35 -6 41 42 11 62 7 55 -10z m8127 6 c0 -14 -23 -59 -30 -59 -3 0 -4 15
-2 33 2 21 9 34 18 34 8 0 14 -4 14 -8z m-8385 -26 c2 -22 -5 -22 -32 0 -16
12 -6 29 15 25 8 -2 16 -13 17 -25z m109 -32 c51 -27 70 -51 42 -51 -29 0
-136 60 -136 76 0 19 25 13 94 -25z m8196 -37 c0 -66 -2 -74 -15 -61 -9 10
-12 27 -9 53 15 108 24 111 24 8z m-9238 -81 c4 -40 2 -53 -8 -53 -8 0 -14 7
-14 16 0 9 -7 28 -16 44 -13 21 -15 39 -9 86 l8 59 17 -50 c9 -27 19 -74 22
-102z m9978 27 c125 -110 230 -217 230 -237 0 -9 7 -24 16 -34 11 -12 14 -27
10 -44 l-6 -25 -34 17 c-19 10 -45 32 -59 48 -24 29 -57 110 -57 140 0 10 -10
15 -30 15 -24 0 -36 9 -61 43 -17 23 -37 46 -45 50 -8 4 -23 26 -34 48 -11 21
-24 39 -28 39 -4 0 -15 15 -25 33 l-19 32 29 -26 c15 -14 66 -58 113 -99z
m-580 90 c6 -12 9 -28 6 -38 -2 -9 -7 -29 -10 -44 -11 -50 -26 -29 -26 37 0
66 10 81 30 45z m-9821 -207 c1 -23 -5 -36 -20 -43 -11 -7 -23 -9 -26 -7 -9
10 -4 148 8 210 l13 62 12 -95 c7 -52 13 -109 13 -127z m9012 190 c-5 -10 -39
-51 -76 -90 -65 -72 -92 -86 -113 -60 -20 24 11 61 97 115 90 56 107 62 92 35z
m-7793 -20 c4 -31 -12 -29 -33 3 -16 25 -16 26 7 22 15 -2 24 -11 26 -25z
m332 -19 c0 -8 -9 -14 -22 -13 -13 0 -17 3 -10 6 6 2 12 11 12 19 0 9 5 12 10
9 6 -3 10 -13 10 -21z m-243 2 c58 -13 204 -77 239 -105 7 -6 15 -7 18 -4 3 4
6 2 6 -3 0 -14 -22 -34 -36 -34 -7 0 -24 10 -37 23 -25 22 -79 44 -170 67 -48
13 -97 43 -97 61 0 11 -4 12 77 -5z m9343 -141 c29 -55 58 -107 65 -115 7 -8
15 -26 18 -40 l6 -25 -19 25 c-11 14 -20 30 -20 37 0 7 -12 27 -27 45 -16 18
-34 42 -41 53 -17 27 -72 144 -72 152 0 21 45 -44 90 -132z m-1600 111 c0 -8
-14 -19 -32 -25 l-32 -11 24 25 c26 28 40 32 40 11z m699 -53 c1 -15 -5 -23
-15 -23 -12 0 -15 6 -10 23 3 12 6 31 7 42 l0 20 9 -20 c5 -11 9 -30 9 -42z
m981 -1 c0 -22 -17 -4 -29 30 l-11 33 20 -25 c11 -14 20 -31 20 -38z m-860 17
c0 -5 -7 -9 -15 -9 -15 0 -20 12 -9 23 8 8 24 -1 24 -14z m-9753 -41 c13 -15
12 -18 -6 -28 -20 -10 -21 -8 -20 32 0 24 3 36 6 28 3 -8 12 -23 20 -32z
m7700 36 c-3 -3 -12 -4 -19 -1 -8 3 -5 6 6 6 11 1 17 -2 13 -5z m1293 -50
c-17 -44 -78 -132 -100 -144 -24 -13 -60 -4 -60 14 0 7 9 25 20 39 11 14 20
29 20 34 0 18 62 82 83 85 37 6 47 -1 37 -28z m78 -2 c3 -20 -55 -123 -78
-137 -24 -15 -22 7 3 33 16 16 32 50 39 80 13 52 30 64 36 24z m832 -17 c0 -5
-5 -3 -10 5 -5 8 -10 20 -10 25 0 6 5 3 10 -5 5 -8 10 -19 10 -25z m800 25 c0
-5 -4 -10 -10 -10 -5 0 -10 5 -10 10 0 6 5 10 10 10 6 0 10 -4 10 -10z m-9460
-45 c33 -17 63 -105 49 -142 -5 -13 -9 -38 -9 -54 0 -16 -5 -29 -10 -29 -22 0
-90 41 -100 61 -16 29 -8 32 34 12 37 -17 67 -12 68 12 0 6 5 16 11 24 9 12 9
13 0 8 -7 -4 -29 1 -50 12 -21 10 -42 19 -48 20 -5 1 -10 9 -11 19 -3 55 -5
63 -14 57 -5 -3 -18 -2 -27 4 -28 16 76 11 107 -4z m7590 5 c0 -6 -7 -26 -15
-46 -13 -31 -16 -33 -35 -22 -25 16 -25 19 5 52 25 27 45 34 45 16z m-7959
-41 c30 -22 71 -49 91 -60 57 -29 128 -79 128 -90 0 -6 -4 -7 -10 -4 -5 3 -10
2 -10 -4 0 -6 -29 10 -64 34 -35 25 -68 45 -74 45 -15 0 -129 88 -136 105 -10
26 19 16 75 -26z m559 32 c0 -5 -7 -11 -15 -15 -9 -3 -15 0 -15 9 0 8 7 15 15
15 8 0 15 -4 15 -9z m8726 -93 c8 -16 10 -28 4 -28 -12 0 -60 74 -60 92 0 15
33 -24 56 -64z m-9657 -152 c13 -23 47 -68 75 -101 56 -65 149 -202 152 -223
1 -7 -24 15 -57 49 -32 34 -59 65 -59 69 0 4 -34 48 -76 96 -65 76 -184 257
-184 279 0 14 125 -128 149 -169z m6781 158 c0 -2 -7 -4 -15 -4 -8 0 -15 4
-15 10 0 5 7 7 15 4 8 -4 15 -8 15 -10z m3095 -130 c13 -33 24 -45 54 -57 27
-11 45 -28 60 -56 18 -35 18 -41 5 -41 -31 0 -138 137 -170 217 l-15 38 25
-29 c14 -16 32 -49 41 -72z m-1625 72 c0 -2 -8 -10 -17 -17 -16 -13 -17 -12
-4 4 13 16 21 21 21 13z m218 -23 c-22 -47 -33 -63 -45 -67 -15 -6 -12 1 19
47 18 25 34 38 26 20z m-7556 -29 c-16 -11 -19 -23 -17 -57 2 -34 -3 -55 -23
-88 -20 -33 -27 -40 -30 -26 -2 10 3 26 12 36 20 22 20 40 2 60 -22 24 -31 70
-15 75 8 2 28 8 44 13 38 12 53 5 27 -13z m7294 -22 c-22 -23 -29 -10 -9 18
11 16 18 19 21 11 2 -7 -3 -20 -12 -29z m-7906 -23 c0 -29 -19 -32 -30 -4 -6
14 -10 33 -10 42 0 14 3 14 20 -2 11 -10 20 -26 20 -36z m8050 43 c0 -5 -9
-17 -20 -27 -22 -20 -26 -14 -10 16 11 19 30 26 30 11z m-7690 -37 c25 -9 53
-24 64 -33 10 -9 21 -16 25 -14 3 1 6 -4 6 -10 0 -7 -6 -13 -13 -13 -7 0 -16
-6 -21 -13 -17 -27 -140 57 -141 97 0 14 5 13 80 -14z m9120 -55 c22 -40 -21
-13 -45 28 -6 11 -3 12 14 3 11 -6 25 -20 31 -31z m-9367 13 c9 -9 -13 -34
-24 -27 -14 8 -11 34 4 34 8 0 17 -3 20 -7z m116 -92 c34 -28 36 -51 3 -51 -9
0 -41 22 -71 48 -96 85 -34 87 68 3z m7884 29 c-3 -12 -8 -19 -11 -16 -5 6 5
36 12 36 2 0 2 -9 -1 -20z m1804 -22 c-3 -8 -6 -5 -6 6 -1 11 2 17 5 13 3 -3
4 -12 1 -19z m-9447 -53 c0 -51 -3 -65 -15 -65 -10 0 -15 -10 -15 -29 0 -47
-21 -55 -66 -25 -21 15 -43 34 -48 43 -5 9 -21 28 -36 42 -41 42 -23 54 21 14
43 -39 51 -41 68 -21 8 10 6 19 -10 40 -18 23 -19 28 -5 41 27 27 45 8 49 -53
l3 -57 2 68 c2 64 3 67 27 67 24 0 25 -2 25 -65z m7392 12 c-28 -28 -42 -36
-42 -25 0 18 69 83 78 73 3 -3 -13 -25 -36 -48z m1779 6 c19 -22 71 -43 108
-43 20 0 35 -8 46 -22 15 -22 14 -23 -6 -26 -12 -2 -26 1 -32 7 -6 6 -20 11
-30 11 -20 0 -117 68 -117 82 0 14 17 9 31 -9z m-183 -51 c6 -18 -15 -14 -22
4 -4 10 -1 14 6 12 6 -2 14 -10 16 -16z m244 -79 c10 -9 18 -22 18 -28 0 -7 7
-25 15 -41 8 -15 13 -30 11 -32 -7 -6 -96 92 -96 105 0 18 30 16 52 -4z
m-9152 -26 c0 -18 -7 -43 -17 -56 l-16 -24 -12 24 c-7 13 -10 39 -8 57 4 26
10 32 29 32 20 0 24 -5 24 -33z m6946 -36 c-10 -11 -25 -17 -33 -14 -12 5 -10
9 8 19 35 19 45 17 25 -5z m1046 -15 c-11 -11 -27 -34 -35 -51 -19 -37 -100
-120 -105 -107 -8 25 132 196 151 185 5 -3 0 -15 -11 -27z m1283 -25 c10 -25
-6 -27 -26 -2 -10 13 -19 27 -19 32 0 13 38 -13 45 -30z m-2375 9 c0 -5 -5
-10 -11 -10 -5 0 -7 5 -4 10 3 6 8 10 11 10 2 0 4 -4 4 -10z m1316 -65 c-15
-33 -30 -54 -36 -50 -7 4 -3 20 12 43 12 20 26 45 32 54 22 36 17 7 -8 -47z
m-1359 23 c-7 -4 -18 -8 -26 -8 -11 0 -10 5 4 20 14 15 20 17 26 8 4 -7 3 -16
-4 -20z m132 -9 c-19 -12 -24 -2 -8 17 9 11 14 13 17 4 3 -7 -2 -16 -9 -21z
m-7431 -46 c24 -27 68 -78 98 -116 58 -70 103 -98 147 -90 21 4 28 -1 41 -25
9 -17 16 -39 16 -50 0 -10 5 -23 12 -30 17 -17 4 -25 -31 -17 -37 8 -125 87
-154 137 -12 22 -31 41 -45 45 -21 5 -172 168 -172 185 0 5 10 8 22 8 12 0 39
-19 66 -47z m264 22 c10 10 7 -109 -3 -121 -7 -9 -8 -14 -1 -14 6 0 12 6 15
13 3 8 7 6 12 -6 12 -30 -1 -30 -49 -2 -74 43 -96 90 -56 118 11 8 17 16 14
20 -3 3 10 2 30 -3 19 -4 36 -6 38 -5z m114 -52 c8 -32 -9 -51 -31 -33 -10 8
-15 29 -15 59 l1 46 19 -24 c11 -13 23 -35 26 -48z m7324 28 c-12 -17 -26 -31
-31 -31 -5 0 3 16 18 35 33 41 44 38 13 -4z m124 32 c4 -4 -21 -33 -55 -65
-35 -32 -65 -55 -68 -53 -2 3 17 23 42 45 25 22 49 50 52 60 7 21 17 25 29 13z
m-234 -29 c0 -3 -22 -31 -50 -62 -27 -31 -50 -62 -50 -69 0 -7 -4 -13 -10 -13
-13 0 -13 17 0 25 6 4 20 25 31 48 26 51 48 77 66 77 7 0 13 -3 13 -6z m-7440
-19 c0 -8 -2 -15 -4 -15 -2 0 -6 7 -10 15 -3 8 -1 15 4 15 6 0 10 -7 10 -15z
m7265 -15 c-22 -14 -31 -16 -37 -7 -8 13 14 25 47 26 16 1 15 -3 -10 -19z
m434 -46 c-27 -24 -52 -44 -55 -44 -3 0 14 25 37 55 32 40 46 51 55 44 10 -8
1 -21 -37 -55z m859 42 c4 -18 -24 -56 -40 -56 -4 0 -8 13 -8 28 0 46 40 70
48 28z m-318 -16 c0 -13 -5 -18 -15 -14 -12 5 -13 10 -4 20 15 19 19 18 19 -6z
m-1030 4 c0 -36 -117 -126 -193 -148 -28 -8 -86 -36 -127 -62 -88 -54 -107
-62 -163 -69 l-42 -5 44 40 c23 22 48 40 54 40 6 0 36 22 66 49 31 26 66 51
77 55 12 3 70 29 130 56 97 45 154 61 154 44z m1110 -10 c0 -2 -7 -4 -15 -4
-8 0 -15 4 -15 10 0 5 7 7 15 4 8 -4 15 -8 15 -10z m1320 1 c7 -8 8 -15 2 -15
-5 0 -15 7 -22 15 -7 8 -8 15 -2 15 5 0 15 -7 22 -15z m169 -69 c46 -47 50
-67 9 -46 -27 14 -128 110 -128 122 0 17 77 -32 119 -76z m-1432 43 c-9 -6
-24 -23 -32 -39 -18 -35 -40 -40 -30 -7 11 35 57 79 69 66 8 -7 6 -13 -7 -20z
m-237 18 c0 -2 -10 -12 -22 -23 l-23 -19 19 23 c18 21 26 27 26 19z m1015 -46
c1 -16 -2 -16 -25 8 -18 17 -24 28 -16 33 14 9 39 -16 41 -41z m426 -4 c-6 -6
-18 -3 -32 7 -13 9 -17 16 -10 16 8 0 11 6 7 17 -5 13 0 11 19 -7 15 -14 22
-27 16 -33z m-610 16 c13 -16 12 -17 -3 -4 -10 7 -18 15 -18 17 0 8 8 3 21
-13z m-175 -18 c16 -12 16 -14 3 -15 -9 0 -22 7 -29 15 -16 19 0 19 26 0z
m-767 -29 c-13 -27 -29 -35 -29 -14 0 13 31 50 37 44 2 -2 -2 -15 -8 -30z
m1171 9 c11 -13 10 -14 -4 -9 -9 3 -16 10 -16 15 0 13 6 11 20 -6z m465 -11
c53 -36 68 -52 61 -70 -5 -14 -18 -14 -77 2 -8 2 -25 24 -37 49 -21 43 -21 45
-3 45 10 0 35 -12 56 -26z m-1138 -16 c-3 -8 -6 -5 -6 6 -1 11 2 17 5 13 3 -3
4 -12 1 -19z m313 -30 c0 -5 -7 -8 -15 -8 -10 0 -15 10 -15 33 l1 32 14 -25
c8 -14 14 -28 15 -32z m-1297 23 c-3 -13 -10 -18 -20 -14 -14 5 -13 8 3 20 23
17 23 17 17 -6z m1052 -21 c0 -7 -6 -15 -12 -17 -8 -3 -13 4 -13 17 0 13 5 20
13 18 6 -3 12 -11 12 -18z m691 -12 c-8 -5 -26 -3 -41 4 -24 11 -25 13 -8 19
10 3 28 1 41 -4 19 -9 20 -12 8 -19z m-246 -9 c0 -11 -4 -17 -10 -14 -5 3 -10
13 -10 21 0 8 5 14 10 14 6 0 10 -9 10 -21z m-549 -17 c7 -20 5 -22 -21 -22
-23 0 -30 5 -30 19 0 36 38 38 51 3z m-41 -87 c9 -11 10 -19 2 -27 -14 -14
-32 -1 -32 23 0 23 13 25 30 4z m107 -27 c-3 -8 -6 -5 -6 6 -1 11 2 17 5 13 3
-3 4 -12 1 -19z m-8452 -48 c3 -5 3 -15 -1 -21 -6 -11 -23 6 -24 24 0 10 18 9
25 -3z m8289 -109 c18 -7 18 -8 3 -14 -20 -7 -47 1 -47 14 0 11 17 11 44 0z
m1324 -77 c2 -33 -1 -71 -7 -84 l-9 -25 -10 27 c-15 37 -30 43 -54 21 -15 -13
-22 -15 -25 -5 -8 20 -43 14 -43 -7 0 -11 -4 -23 -10 -26 -13 -8 -13 100 0
126 15 28 34 23 47 -11 16 -42 40 -38 59 10 25 62 48 51 52 -26z m-601 -18
c-15 -23 -82 -45 -95 -31 -3 3 16 28 44 56 l49 50 8 -26 c6 -18 4 -33 -6 -49z
m-1175 39 c6 -27 -6 -24 -22 6 -8 15 -7 19 3 19 8 0 17 -11 19 -25z m1278 -26
c9 -36 36 -35 55 2 19 36 31 29 39 -21 13 -80 -20 -134 -43 -69 -13 37 -42 37
-51 0 -3 -14 -11 -26 -18 -29 -9 -3 -12 17 -12 73 0 56 3 76 12 73 7 -3 15
-15 18 -29z m190 10 c0 -13 44 -11 57 2 20 20 33 -1 33 -56 0 -62 -11 -75 -34
-40 -10 16 -26 25 -42 25 -29 0 -64 16 -64 30 0 27 21 59 35 54 8 -3 15 -10
15 -15z m-426 -24 c-4 -8 -10 -15 -15 -15 -5 0 -9 7 -9 15 0 8 7 15 15 15 9 0
12 -6 9 -15z m-134 -24 c0 -5 -7 -11 -15 -15 -9 -3 -15 0 -15 9 0 8 7 15 15
15 8 0 15 -4 15 -9z m-73 -74 c18 -13 6 -27 -22 -27 -27 0 -54 35 -32 43 14 5
36 -2 54 -16z m113 -15 c0 -4 -11 -23 -25 -42 -30 -40 -33 -29 -5 18 19 31 30
40 30 24z m-730 -38 c0 -14 -3 -14 -15 -4 -8 7 -15 14 -15 16 0 2 7 4 15 4 8
0 15 -7 15 -16z m60 -149 c0 -25 -4 -45 -10 -45 -5 0 -10 20 -10 45 0 25 5 45
10 45 6 0 10 -20 10 -45z m576 13 c-18 -26 -22 -17 -5 14 6 11 13 17 16 15 3
-3 -2 -16 -11 -29z m-31 -68 c3 -5 -1 -10 -10 -10 -9 0 -13 5 -10 10 3 6 8 10
10 10 2 0 7 -4 10 -10z"/>
<path d="M3870 8909 c0 -5 5 -7 11 -3 10 6 28 -1 113 -43 16 -7 31 -11 34 -9
2 3 -13 13 -34 22 -22 9 -52 22 -67 30 -34 17 -57 18 -57 3z"/>
<path d="M3637 8894 c-3 -5 11 -10 30 -11 19 -1 43 -9 52 -17 10 -9 21 -16 26
-16 4 0 -4 9 -18 20 -28 23 -82 37 -90 24z"/>
<path d="M3857 8871 c-4 -17 -3 -21 5 -13 5 5 8 16 6 23 -3 8 -7 3 -11 -10z"/>
<path d="M4096 8865 c-11 -8 -15 -15 -9 -15 7 0 15 5 19 11 4 6 21 8 43 5 26
-4 30 -3 16 4 -29 13 -47 11 -69 -5z"/>
<path d="M3345 8860 c19 -8 73 -14 64 -6 -2 2 -22 6 -44 9 -28 5 -34 4 -20 -3z"/>
<path d="M3428 8863 c7 -3 16 -2 19 1 4 3 -2 6 -13 5 -11 0 -14 -3 -6 -6z"/>
<path d="M3569 8858 c24 -5 47 -6 52 -1 4 4 -16 9 -44 9 l-52 2 44 -10z"/>
<path d="M3115 8850 c-27 -7 -27 -8 -5 -8 14 0 39 4 55 8 27 7 27 8 5 8 -14 0
-38 -4 -55 -8z"/>
<path d="M3498 8853 c7 -3 16 -2 19 1 4 3 -2 6 -13 5 -11 0 -14 -3 -6 -6z"/>
<path d="M3798 8853 c7 -3 16 -2 19 1 4 3 -2 6 -13 5 -11 0 -14 -3 -6 -6z"/>
<path d="M3223 8843 c15 -2 37 -2 50 0 12 2 0 4 -28 4 -27 0 -38 -2 -22 -4z"/>
<path d="M4048 8843 c7 -3 16 -2 19 1 4 3 -2 6 -13 5 -11 0 -14 -3 -6 -6z"/>
<path d="M4248 8840 c27 -11 27 -16 2 -58 -12 -19 -16 -31 -10 -27 17 11 42
66 36 81 -3 8 -16 14 -28 13 l-23 0 23 -9z"/>
<path d="M3024 8828 c8 -4 25 -4 38 1 20 8 18 9 -15 8 -24 -1 -32 -4 -23 -9z"/>
<path d="M2960 8799 l-35 -30 38 26 c33 24 43 35 34 35 -1 0 -18 -14 -37 -31z"/>
<path d="M4102 8768 c-15 -15 -16 -31 0 -22 8 5 9 2 5 -9 -9 -25 20 -49 44
-37 34 19 19 80 -21 80 -9 0 -21 -5 -28 -12z"/>
<path d="M2906 8725 c-9 -26 -7 -32 5 -12 6 10 9 21 6 23 -2 3 -7 -2 -11 -11z"/>
<path d="M4203 8703 c-13 -19 -23 -40 -22 -46 0 -7 3 -5 7 3 4 8 15 28 26 43
10 15 17 29 15 31 -2 2 -14 -12 -26 -31z"/>
<path d="M3766 8694 c-30 -21 -35 -30 -34 -60 1 -22 4 -30 9 -22 5 7 6 22 3
34 -4 17 3 26 31 44 46 28 55 20 23 -22 -14 -18 -34 -53 -45 -77 -14 -29 -23
-39 -27 -30 -3 8 -4 -1 -1 -19 3 -19 1 -31 -4 -27 -5 3 -12 -3 -16 -14 -3 -10
-15 -27 -26 -37 -17 -16 -22 -16 -29 -4 -6 9 -10 10 -10 3 0 -6 -3 -19 -7 -29
-5 -13 -3 -15 7 -9 8 5 18 1 28 -11 14 -18 14 -18 8 2 -4 13 3 32 19 54 22 29
25 31 25 13 0 -12 -5 -25 -11 -28 -16 -10 0 -210 22 -275 23 -67 24 -76 2 -59
-15 11 -14 10 1 -9 21 -24 32 -29 20 -9 -5 7 -1 7 12 -3 29 -22 30 -24 12 -17
-10 4 -18 -1 -21 -13 -3 -11 -18 -21 -38 -25 -19 -4 -49 -12 -67 -18 -31 -11
-36 -10 -53 12 -10 13 -19 19 -19 14 0 -6 9 -18 20 -28 18 -16 25 -17 54 -7
43 16 44 16 48 -10 4 -33 52 -37 78 -6 10 13 17 31 14 41 -3 10 5 30 20 48 14
17 26 40 25 52 -1 20 -2 20 -9 -3 -4 -14 -8 -19 -9 -11 -1 8 -11 34 -22 58
-14 29 -21 63 -21 101 0 143 2 173 11 190 7 13 7 22 0 29 -7 7 -6 20 5 42 9
17 19 31 22 31 3 0 2 -4 -1 -10 -3 -5 -4 -10 -1 -10 10 0 35 58 28 65 -4 5 -1
5 6 1 9 -5 13 -3 11 5 -4 24 17 64 25 50 5 -7 1 -18 -10 -26 -17 -12 -16 -13
9 -8 38 7 40 16 12 43 -34 32 -85 34 -129 4z m20 -655 c3 -6 -1 -18 -10 -27
-15 -15 -16 -15 -16 1 0 9 -5 17 -11 17 -5 0 -7 5 -4 10 8 13 32 13 41 -1z"/>
<path d="M2882 8670 c-7 -11 -8 -20 -3 -20 9 0 24 30 18 36 -1 2 -8 -6 -15
-16z"/>
<path d="M3415 8680 c-3 -5 1 -10 10 -10 9 0 13 5 10 10 -3 6 -8 10 -10 10 -2
0 -7 -4 -10 -10z"/>
<path d="M3122 8668 c3 -7 13 -15 22 -16 12 -3 17 1 14 10 -3 7 -13 15 -22 16
-12 3 -17 -1 -14 -10z"/>
<path d="M4076 8655 c-9 -9 -17 -24 -18 -33 0 -9 -2 -21 -3 -27 -2 -5 -3 -16
-4 -23 0 -7 -5 -10 -11 -7 -15 10 -12 -18 6 -43 36 -52 80 -2 71 80 -8 61 -18
75 -41 53z m24 -15 c0 -5 -7 -10 -16 -10 -8 0 -12 5 -9 10 3 6 10 10 16 10 5
0 9 -4 9 -10z"/>
<path d="M2748 8643 c23 -2 59 -2 80 0 20 2 1 4 -43 4 -44 0 -61 -2 -37 -4z"/>
<path d="M2628 8603 c7 -3 16 -2 19 1 4 3 -2 6 -13 5 -11 0 -14 -3 -6 -6z"/>
<path d="M2563 8581 c-12 -15 -20 -17 -33 -9 -10 6 -25 8 -34 5 -24 -9 -20
-46 7 -57 12 -5 18 -9 12 -10 -5 0 -16 -4 -23 -9 -11 -7 -11 -12 -1 -28 17
-29 5 -53 -28 -54 -17 -1 -21 -3 -10 -6 30 -8 14 -35 -28 -46 -19 -4 -18 -5 2
-6 12 0 25 4 28 9 3 6 24 10 45 10 30 0 42 5 51 21 9 17 17 20 42 15 23 -4 28
-3 17 4 -24 16 -54 11 -68 -10 -7 -11 -21 -20 -32 -20 -24 0 -25 8 -3 32 14
16 14 22 3 43 -12 23 -12 27 8 41 12 8 29 29 38 45 8 17 25 34 37 39 17 7 18
9 4 9 -9 1 -25 -8 -34 -18z"/>
<path d="M3595 8574 c-11 -8 -19 -22 -17 -31 2 -8 -1 -12 -6 -9 -12 7 -24 -22
-15 -36 3 -7 1 -8 -5 -4 -6 4 -11 -1 -10 -11 0 -10 -9 -36 -21 -58 -11 -21
-21 -33 -21 -25 0 8 9 30 20 48 12 19 16 31 10 27 -14 -9 -36 -53 -44 -90 -5
-22 -4 -26 4 -15 8 12 9 10 6 -10 -3 -14 -5 -32 -6 -40 -1 -8 -6 -4 -10 10 -7
22 -8 20 -9 -15 -1 -30 -7 -44 -28 -61 -27 -21 -27 -21 -9 -55 16 -31 17 -16
2 22 -5 11 1 22 18 33 25 15 26 15 26 -1 0 -10 -5 -36 -10 -58 -20 -83 -20
-115 0 -177 11 -34 18 -63 16 -65 -2 -3 -7 5 -11 17 -4 12 -22 28 -41 36 -33
14 -34 16 -19 37 22 32 18 44 -5 14 -28 -35 -25 -44 15 -57 19 -6 37 -20 40
-30 8 -26 43 -68 67 -81 11 -6 18 -7 15 -2 -4 6 15 5 46 0 106 -20 157 -39
187 -68 24 -24 44 -32 97 -41 36 -5 81 -8 100 -5 18 3 33 2 33 -4 0 -5 9 -9
21 -9 11 0 18 4 15 9 -8 13 46 21 143 21 47 1 103 7 124 14 41 15 44 14 21 -8
-8 -9 -11 -16 -5 -16 19 0 32 37 21 64 -6 18 -19 27 -46 32 -20 4 -39 3 -43
-2 -3 -5 -52 -9 -108 -9 -56 0 -94 -3 -85 -8 18 -8 -97 0 -136 10 -19 4 -21 8
-10 15 9 7 4 8 -15 3 -16 -3 -26 -2 -23 3 3 5 -6 14 -20 21 -14 6 -23 7 -20 2
4 -5 -20 -3 -51 5 -32 8 -83 19 -113 25 -85 17 -101 28 -120 84 -17 49 -17 51
3 73 11 12 27 22 34 22 24 0 45 28 38 50 -3 11 -11 19 -17 17 -6 -1 -20 20
-30 46 -10 27 -15 46 -10 43 4 -2 6 12 3 32 -4 35 -5 35 -12 12 -5 -16 -6 -9
-2 20 6 51 11 63 23 55 4 -3 14 3 21 13 13 15 12 16 -3 3 -10 -7 -18 -10 -18
-5 1 17 49 99 50 84 0 -8 9 2 20 23 16 29 18 42 10 57 -13 24 -47 25 -75 4z
m75 -22 c0 -5 -7 -17 -15 -28 -14 -18 -14 -17 -4 9 12 27 19 34 19 19z m533
-699 c-7 -2 -19 -2 -25 0 -7 3 -2 5 12 5 14 0 19 -2 13 -5z"/>
<path d="M2338 8543 c7 -3 16 -2 19 1 4 3 -2 6 -13 5 -11 0 -14 -3 -6 -6z"/>
<path d="M2407 8544 c-12 -13 -8 -42 8 -48 25 -9 46 5 43 28 -3 21 -37 34 -51
20z"/>
<path d="M2366 8480 c-18 -38 -16 -60 7 -60 7 0 6 4 -3 10 -13 8 -13 14 4 45
11 19 17 37 15 39 -2 3 -12 -13 -23 -34z"/>
<path d="M2798 8463 c17 -2 47 -2 65 0 17 2 3 4 -33 4 -36 0 -50 -2 -32 -4z"/>
<path d="M2699 8439 l-24 -20 28 17 c15 9 27 18 27 20 0 8 -8 4 -31 -17z"/>
<path d="M2260 8430 c-9 -16 -8 -18 5 -14 8 4 15 12 15 20 0 20 -7 17 -20 -6z"/>
<path d="M3816 8437 c3 -10 9 -15 12 -12 3 3 0 11 -7 18 -10 9 -11 8 -5 -6z"/>
<path d="M2138 8413 c6 -2 18 -2 25 0 6 3 1 5 -13 5 -14 0 -19 -2 -12 -5z"/>
<path d="M2638 8413 c6 -2 18 -2 25 0 6 3 1 5 -13 5 -14 0 -19 -2 -12 -5z"/>
<path d="M3804 8395 c-3 -8 -4 -20 -2 -27 3 -7 7 -1 10 15 6 29 1 36 -8 12z"/>
<path d="M1989 8370 c-9 -25 -16 -30 -43 -30 -25 0 -40 -9 -71 -46 -22 -25
-40 -51 -40 -57 0 -25 38 -17 82 17 26 20 53 36 61 36 8 0 12 6 8 15 -3 8 0
14 7 12 7 -1 11 4 9 11 -1 8 2 11 7 8 8 -5 56 43 49 49 -2 1 -16 5 -31 9 -25
6 -29 3 -38 -24z"/>
<path d="M3581 8364 c0 -11 3 -14 6 -6 3 7 2 16 -1 19 -3 4 -6 -2 -5 -13z"/>
<path d="M3675 8360 c4 -14 10 -41 15 -60 7 -30 8 -31 9 -9 0 15 -6 42 -15 60
-10 22 -13 25 -9 9z"/>
<path d="M2370 8350 c-8 -5 -10 -10 -5 -10 6 0 17 5 25 10 8 5 11 10 5 10 -5
0 -17 -5 -25 -10z"/>
<path d="M2288 8313 c7 -3 16 -2 19 1 4 3 -2 6 -13 5 -11 0 -14 -3 -6 -6z"/>
<path d="M2715 8310 c-3 -6 1 -7 9 -4 18 7 21 14 7 14 -6 0 -13 -4 -16 -10z"/>
<path d="M2238 8303 c6 -2 18 -2 25 0 6 3 1 5 -13 5 -14 0 -19 -2 -12 -5z"/>
<path d="M2183 8293 c9 -2 23 -2 30 0 6 3 -1 5 -18 5 -16 0 -22 -2 -12 -5z"/>
<path d="M2670 8294 c-53 -18 -90 -39 -95 -55 -4 -11 -14 -19 -23 -20 -11 0
-12 -2 -4 -6 7 -2 25 9 40 25 16 17 47 35 70 42 23 6 42 13 42 15 0 6 -9 5
-30 -1z"/>
<path d="M2135 8280 c-3 -6 1 -7 9 -4 18 7 21 14 7 14 -6 0 -13 -4 -16 -10z"/>
<path d="M3680 8244 c0 -10 5 -26 10 -34 8 -11 9 -7 4 15 -8 37 -14 45 -14 19z"/>
<path d="M3840 8222 c6 -13 14 -21 18 -18 3 4 -2 14 -12 24 -18 16 -18 16 -6
-6z"/>
<path d="M2498 8203 c6 -2 18 -2 25 0 6 3 1 5 -13 5 -14 0 -19 -2 -12 -5z"/>
<path d="M2465 8189 c-4 -6 -5 -12 -2 -15 2 -3 7 2 10 11 7 17 1 20 -8 4z"/>
<path d="M3701 8185 c1 -19 18 -51 18 -35 0 8 -4 22 -9 30 -5 8 -9 11 -9 5z"/>
<path d="M4855 8180 c-4 -6 1 -7 11 -3 11 4 22 -1 30 -12 8 -10 14 -14 14 -9
0 26 -42 44 -55 24z"/>
<path d="M4759 8113 l-24 -28 28 24 c25 23 32 31 24 31 -2 0 -14 -12 -28 -27z"/>
<path d="M4900 8103 c-3 -23 -2 -39 3 -34 5 5 7 24 5 42 -3 33 -4 33 -8 -8z"/>
<path d="M3608 8104 c-37 -19 -36 -25 2 -11 17 6 30 15 30 19 0 10 0 10 -32
-8z"/>
<path d="M4203 8113 c9 -2 23 -2 30 0 6 3 -1 5 -18 5 -16 0 -22 -2 -12 -5z"/>
<path d="M2441 8075 c-1 -46 -15 -65 -47 -65 -12 0 -28 -7 -35 -16 -16 -20
-40 -86 -28 -78 5 3 12 19 17 36 8 33 21 43 64 53 31 6 42 34 35 81 -3 23 -4
21 -6 -11z"/>
<path d="M4673 8058 c-11 -13 -29 -28 -39 -35 -15 -9 -13 -10 11 -1 17 6 36
21 42 34 14 30 12 30 -14 2z"/>
<path d="M4843 8010 c-18 -11 -33 -24 -33 -30 0 -5 8 -2 18 8 10 9 27 22 38
29 10 6 17 12 14 12 -3 1 -20 -8 -37 -19z"/>
<path d="M3750 7961 c0 -6 4 -13 10 -16 6 -3 7 1 4 9 -7 18 -14 21 -14 7z"/>
<path d="M2311 7878 c-1 -27 21 -58 42 -58 6 0 2 7 -10 15 -12 8 -24 28 -26
43 l-4 27 -2 -27z"/>
<path d="M3567 7869 c7 -7 15 -10 18 -7 3 3 -2 9 -12 12 -14 6 -15 5 -6 -5z"/>
<path d="M3953 7873 c9 -2 23 -2 30 0 6 3 -1 5 -18 5 -16 0 -22 -2 -12 -5z"/>
<path d="M3623 7863 c9 -2 23 -2 30 0 6 3 -1 5 -18 5 -16 0 -22 -2 -12 -5z"/>
<path d="M3706 7825 c19 -19 38 -35 41 -35 4 0 -8 16 -27 35 -19 19 -37 35
-42 35 -4 0 8 -16 28 -35z"/>
<path d="M4538 7823 c6 -2 18 -2 25 0 6 3 1 5 -13 5 -14 0 -19 -2 -12 -5z"/>
<path d="M2383 7809 c15 -9 17 -18 13 -43 -5 -26 -2 -37 16 -52 l23 -19 -18
21 c-12 15 -16 30 -11 48 6 27 -9 56 -30 56 -6 0 -3 -5 7 -11z"/>
<path d="M3040 7790 c0 -5 7 -10 15 -10 8 0 15 5 15 10 0 6 -7 10 -15 10 -8 0
-15 -4 -15 -10z"/>
<path d="M3788 7773 c7 -3 16 -2 19 1 4 3 -2 6 -13 5 -11 0 -14 -3 -6 -6z"/>
<path d="M4183 7773 c26 -2 67 -2 90 0 23 2 2 3 -48 3 -49 0 -68 -1 -42 -3z"/>
<path d="M3838 7763 c7 -3 16 -2 19 1 4 3 -2 6 -13 5 -11 0 -14 -3 -6 -6z"/>
<path d="M4088 7763 c7 -3 16 -2 19 1 4 3 -2 6 -13 5 -11 0 -14 -3 -6 -6z"/>
<path d="M3888 7753 c6 -2 18 -2 25 0 6 3 1 5 -13 5 -14 0 -19 -2 -12 -5z"/>
<path d="M3978 7753 c7 -3 16 -2 19 1 4 3 -2 6 -13 5 -11 0 -14 -3 -6 -6z"/>
<path d="M3938 7743 c7 -3 16 -2 19 1 4 3 -2 6 -13 5 -11 0 -14 -3 -6 -6z"/>
<path d="M2578 7683 c6 -2 18 -2 25 0 6 3 1 5 -13 5 -14 0 -19 -2 -12 -5z"/>
<path d="M2628 7673 c7 -3 16 -2 19 1 4 3 -2 6 -13 5 -11 0 -14 -3 -6 -6z"/>
<path d="M3688 7663 c6 -2 18 -2 25 0 6 3 1 5 -13 5 -14 0 -19 -2 -12 -5z"/>
<path d="M3648 7653 c7 -3 16 -2 19 1 4 3 -2 6 -13 5 -11 0 -14 -3 -6 -6z"/>
<path d="M3138 7623 c6 -2 18 -2 25 0 6 3 1 5 -13 5 -14 0 -19 -2 -12 -5z"/>
<path d="M2928 7613 c12 -2 32 -2 45 0 12 2 2 4 -23 4 -25 0 -35 -2 -22 -4z"/>
<path d="M3408 7613 c28 -2 76 -2 105 0 28 2 5 3 -53 3 -58 0 -81 -1 -52 -3z"/>
<path d="M4313 7613 c9 -2 23 -2 30 0 6 3 -1 5 -18 5 -16 0 -22 -2 -12 -5z"/>
<path d="M3748 7513 c6 -2 18 -2 25 0 6 3 1 5 -13 5 -14 0 -19 -2 -12 -5z"/>
<path d="M2333 7503 c-7 -2 -12 -17 -12 -31 1 -21 2 -23 6 -7 3 11 10 26 15
33 11 13 10 13 -9 5z"/>
<path d="M2420 7456 c0 -2 14 -14 30 -26 17 -12 30 -19 30 -16 0 2 -13 14 -30
26 -16 12 -30 19 -30 16z"/>
<path d="M3843 7433 c9 -2 23 -2 30 0 6 3 -1 5 -18 5 -16 0 -22 -2 -12 -5z"/>
<path d="M2351 7405 c9 -11 22 -35 29 -53 7 -18 14 -31 16 -29 8 7 -25 74 -43
88 -17 13 -17 12 -2 -6z"/>
<path d="M3620 7403 c0 -6 8 -17 18 -24 16 -13 16 -13 2 6 -8 11 -16 22 -17
24 -2 2 -3 0 -3 -6z"/>
<path d="M2021 7369 c7 -5 28 -9 46 -9 37 0 38 -1 57 -71 8 -30 15 -45 15 -33
1 27 -18 86 -33 100 -6 6 -31 14 -55 17 -29 4 -40 2 -30 -4z"/>
<path d="M2518 7363 c6 -2 18 -2 25 0 6 3 1 5 -13 5 -14 0 -19 -2 -12 -5z"/>
<path d="M2577 7339 c12 -12 24 -21 27 -18 2 2 -8 13 -22 23 l-27 19 22 -24z"/>
<path d="M2635 7310 c27 -12 43 -12 25 0 -8 5 -22 9 -30 9 -10 0 -8 -3 5 -9z"/>
<path d="M2403 7275 c0 -22 2 -30 4 -17 2 12 2 30 0 40 -3 9 -5 -1 -4 -23z"/>
<path d="M2142 7205 c0 -16 2 -22 5 -12 2 9 2 23 0 30 -3 6 -5 -1 -5 -18z"/>
<path d="M1980 7211 c0 -6 4 -13 10 -16 6 -3 7 1 4 9 -7 18 -14 21 -14 7z"/>
<path d="M2602 7188 c-7 -7 -12 -17 -12 -22 0 -6 5 -4 10 4 8 13 10 13 10 -2
0 -9 3 -25 7 -35 6 -16 5 -17 -13 -3 -18 14 -18 14 1 -10 11 -14 22 -27 24
-30 2 -3 1 4 -3 15 -4 11 15 -5 42 -35 38 -42 47 -57 36 -63 -8 -4 -19 -5 -24
-2 -22 14 -8 -35 15 -53 17 -14 21 -22 13 -25 -7 -3 2 -6 20 -6 18 -1 31 3 27
8 -3 5 -1 12 5 16 5 3 10 15 10 26 0 24 27 25 33 2 3 -10 5 1 6 24 1 34 -5 49
-29 76 -17 20 -30 46 -30 60 0 24 -34 56 -47 44 -2 -3 5 -8 16 -12 14 -4 21
-15 21 -33 0 -14 12 -39 28 -56 l27 -30 -30 23 c-32 24 -81 85 -91 114 -7 20
-54 23 -72 5z"/>
<path d="M2007 7170 c6 -8 13 -31 16 -50 l4 -35 1 36 c1 24 -4 41 -15 50 -16
12 -16 12 -6 -1z"/>
<path d="M2140 7151 c0 -6 4 -13 10 -16 6 -3 7 1 4 9 -7 18 -14 21 -14 7z"/>
<path d="M549 7089 c-27 -34 -29 -40 -11 -30 12 6 22 18 22 26 0 8 10 21 22
29 12 9 17 16 11 16 -6 0 -26 -19 -44 -41z"/>
<path d="M2955 7106 c22 -9 49 -15 60 -15 11 1 5 5 -15 11 -64 17 -85 19 -45
4z"/>
<path d="M2181 7094 c0 -11 3 -14 6 -6 3 7 2 16 -1 19 -3 4 -6 -2 -5 -13z"/>
<path d="M3169 7089 l-24 -20 28 17 c15 9 27 18 27 20 0 8 -8 4 -31 -17z"/>
<path d="M2031 7064 c0 -11 3 -14 6 -6 3 7 2 16 -1 19 -3 4 -6 -2 -5 -13z"/>
<path d="M2201 7050 c14 -31 19 -36 19 -24 0 6 -7 19 -16 30 -14 18 -14 18 -3
-6z"/>
<path d="M2661 7053 c7 -12 15 -20 18 -17 3 2 -3 12 -13 22 -17 16 -18 16 -5
-5z"/>
<path d="M3191 7040 c-24 -17 -40 -30 -36 -30 10 0 85 50 85 56 0 7 -4 5 -49
-26z"/>
<path d="M621 7034 c0 -11 3 -14 6 -6 3 7 2 16 -1 19 -3 4 -6 -2 -5 -13z"/>
<path d="M983 6985 c0 -27 2 -38 4 -22 2 15 2 37 0 50 -2 12 -4 0 -4 -28z"/>
<path d="M482 6990 c0 -19 2 -27 5 -17 2 9 2 25 0 35 -3 9 -5 1 -5 -18z"/>
<path d="M612 6990 c0 -14 2 -19 5 -12 2 6 2 18 0 25 -3 6 -5 1 -5 -13z"/>
<path d="M3110 7000 c-8 -5 -10 -10 -5 -10 6 0 17 5 25 10 8 5 11 10 5 10 -5
0 -17 -5 -25 -10z"/>
<path d="M2216 6975 c-9 -35 -9 -39 1 -42 4 -2 9 13 10 32 2 41 -2 45 -11 10z"/>
<path d="M1510 6981 c0 -6 4 -13 10 -16 6 -3 7 1 4 9 -7 18 -14 21 -14 7z"/>
<path d="M852 6955 c0 -16 2 -22 5 -12 2 9 2 23 0 30 -3 6 -5 -1 -5 -18z"/>
<path d="M1807 6945 c7 -49 13 -58 13 -19 0 16 -5 36 -10 44 -6 10 -7 2 -3
-25z"/>
<path d="M3020 6955 c-14 -8 -20 -14 -14 -15 5 0 19 7 30 15 24 18 16 19 -16
0z"/>
<path d="M1622 6940 c0 -14 2 -19 5 -12 2 6 2 18 0 25 -3 6 -5 1 -5 -13z"/>
<path d="M2780 6940 c-9 -6 -10 -10 -3 -10 6 0 15 5 18 10 8 12 4 12 -15 0z"/>
<path d="M2958 6927 c-7 -7 -22 -18 -33 -25 -11 -6 -15 -12 -9 -12 5 0 25 11
44 25 19 14 29 25 23 25 -7 0 -18 -6 -25 -13z"/>
<path d="M991 6914 c0 -11 3 -14 6 -6 3 7 2 16 -1 19 -3 4 -6 -2 -5 -13z"/>
<path d="M2248 6920 c6 -8 12 -26 12 -41 0 -14 9 -38 21 -52 16 -21 18 -31 9
-47 -15 -29 -44 -25 -74 11 -14 17 -26 27 -26 22 0 -16 55 -63 73 -63 9 0 24
11 33 25 15 23 15 26 -5 51 -12 15 -21 39 -21 54 0 15 -8 34 -17 41 -15 11
-16 11 -5 -1z"/>
<path d="M1375 6910 c-7 -11 12 -50 24 -50 15 0 33 29 27 45 -6 17 -41 20 -51
5z m45 -13 c0 -21 -12 -28 -27 -16 -19 16 -16 29 7 29 11 0 20 -6 20 -13z"/>
<path d="M1631 6874 c0 -11 3 -14 6 -6 3 7 2 16 -1 19 -3 4 -6 -2 -5 -13z"/>
<path d="M1820 6881 c0 -6 4 -13 10 -16 6 -3 7 1 4 9 -7 18 -14 21 -14 7z"/>
<path d="M1911 6874 c0 -11 3 -14 6 -6 3 7 2 16 -1 19 -3 4 -6 -2 -5 -13z"/>
<path d="M2844 6864 c-18 -14 -18 -15 4 -4 12 6 22 13 22 15 0 8 -5 6 -26 -11z"/>
<path d="M1541 6834 c0 -23 5 -48 15 -60 8 -10 12 -12 8 -4 -5 8 -11 35 -15
60 l-6 45 -2 -41z"/>
<path d="M1840 6844 c0 -6 7 -19 16 -30 14 -18 14 -18 3 6 -14 31 -19 36 -19
24z"/>
<path d="M749 6823 c-13 -17 -13 -17 6 -3 11 8 22 16 24 17 2 2 0 3 -6 3 -6 0
-17 -8 -24 -17z"/>
<path d="M2774 6824 c-18 -14 -18 -15 4 -4 12 6 22 13 22 15 0 8 -5 6 -26 -11z"/>
<path d="M1651 6782 c-1 -37 4 -48 37 -80 25 -26 28 -28 7 -5 -20 22 -31 49
-36 81 l-6 47 -2 -43z"/>
<path d="M1887 6788 c2 -5 13 -8 24 -8 10 0 19 3 19 8 0 4 -11 7 -24 7 -13 0
-22 -3 -19 -7z"/>
<path d="M1935 6772 c-5 -4 -19 -18 -30 -32 -17 -22 -16 -22 12 3 26 24 34 27
51 18 12 -6 36 -10 54 -10 32 1 32 2 -7 9 -22 4 -47 10 -55 13 -8 4 -19 3 -25
-1z"/>
<path d="M2540 6760 c-18 -12 -2 -12 25 0 13 6 15 9 5 9 -8 0 -22 -4 -30 -9z"/>
<path d="M2623 6763 c9 -2 23 -2 30 0 6 3 -1 5 -18 5 -16 0 -22 -2 -12 -5z"/>
<path d="M1571 6734 c0 -11 3 -14 6 -6 3 7 2 16 -1 19 -3 4 -6 -2 -5 -13z"/>
<path d="M2084 6740 c16 -5 41 -19 55 -32 15 -13 12 -8 -6 10 -19 18 -42 32
-55 31 -20 -1 -19 -2 6 -9z"/>
<path d="M1571 6674 c0 -11 3 -14 6 -6 3 7 2 16 -1 19 -3 4 -6 -2 -5 -13z"/>
<path d="M621 6655 c1 -19 18 -51 18 -35 0 8 -4 22 -9 30 -5 8 -9 11 -9 5z"/>
<path d="M2358 6603 c7 -3 16 -2 19 1 4 3 -2 6 -13 5 -11 0 -14 -3 -6 -6z"/>
<path d="M2270 6575 c-14 -8 -20 -14 -15 -14 6 0 21 6 35 14 14 8 21 14 15 14
-5 0 -21 -6 -35 -14z"/>
<path d="M710 6561 c0 -4 -18 -7 -40 -5 -35 2 -41 0 -46 -22 -8 -33 11 -54 50
-54 37 0 56 16 55 45 -1 17 -2 17 -10 -5 -7 -21 -8 -19 -4 13 2 20 2 37 -1 37
-2 0 -4 -4 -4 -9z m-73 -53 c-3 -8 -6 -5 -6 6 -1 11 2 17 5 13 3 -3 4 -12 1
-19z"/>
<path d="M2151 6551 c-8 -5 5 -7 35 -4 27 3 51 7 53 9 9 8 -75 3 -88 -5z"/>
<path d="M2088 6533 c6 -2 18 -2 25 0 6 3 1 5 -13 5 -14 0 -19 -2 -12 -5z"/>
<path d="M431 6513 c7 -12 15 -20 18 -17 3 2 -3 12 -13 22 -17 16 -18 16 -5
-5z"/>
<path d="M2018 6523 c7 -3 16 -2 19 1 4 3 -2 6 -13 5 -11 0 -14 -3 -6 -6z"/>
<path d="M424 6466 c-3 -8 -4 -23 -2 -33 3 -11 6 -6 9 15 6 34 2 42 -7 18z"/>
<path d="M420 6353 c0 -6 4 -15 10 -18 5 -3 14 -20 19 -38 6 -20 9 -25 10 -12
0 11 -8 34 -19 50 -11 17 -20 25 -20 18z"/>
<path d="M1300 6315 c-14 -8 -20 -14 -15 -14 6 0 21 6 35 14 14 8 21 14 15 14
-5 0 -21 -6 -35 -14z"/>
<path d="M1205 6258 c-22 -23 -29 -34 -15 -23 37 29 72 65 62 65 -4 0 -26 -19
-47 -42z"/>
<path d="M451 6224 c0 -11 3 -14 6 -6 3 7 2 16 -1 19 -3 4 -6 -2 -5 -13z"/>
<path d="M461 6176 c0 -10 8 -34 20 -52 11 -19 17 -39 13 -45 -4 -8 -3 -9 4
-5 17 10 15 30 -7 57 -10 13 -21 33 -24 44 -4 18 -5 18 -6 1z"/>
<path d="M1049 6113 c-13 -16 -12 -17 4 -4 16 13 21 21 13 21 -2 0 -10 -8 -17
-17z"/>
<path d="M510 6025 c0 -5 5 -17 10 -25 5 -8 10 -10 10 -5 0 6 -5 17 -10 25 -5
8 -10 11 -10 5z"/>
<path d="M545 5910 c10 -11 20 -20 23 -20 3 0 -3 9 -13 20 -10 11 -20 20 -23
20 -3 0 3 -9 13 -20z"/>
<path d="M588 5863 c5 -21 7 -23 10 -9 2 10 0 22 -6 28 -6 6 -7 0 -4 -19z"/>
<path d="M980 5864 c0 -6 7 -19 16 -30 14 -18 14 -18 3 6 -14 31 -19 36 -19
24z"/>
<path d="M581 5814 c0 -11 3 -14 6 -6 3 7 2 16 -1 19 -3 4 -6 -2 -5 -13z"/>
<path d="M610 5723 c0 -6 7 -17 16 -24 9 -8 25 -32 35 -55 9 -23 22 -45 28
-48 6 -4 12 -22 12 -39 2 -30 2 -31 6 -4 3 17 -3 37 -16 53 -12 15 -21 32 -21
39 0 7 -13 29 -30 50 -16 21 -30 33 -30 28z"/>
<path d="M813 5673 c-16 -6 -17 -65 -1 -81 7 -7 21 -12 33 -12 12 0 26 5 33
12 14 14 16 78 2 78 -5 0 -7 -6 -5 -12 4 -9 -6 -13 -30 -13 -40 0 -46 11 -12
25 12 5 15 9 7 9 -8 -1 -21 -3 -27 -6z"/>
<path d="M1058 5626 c-10 -7 -18 -17 -18 -21 0 -5 9 0 21 11 16 15 24 16 39 6
16 -10 18 -9 14 3 -7 18 -33 19 -56 1z"/>
<path d="M1102 5580 c0 -14 2 -19 5 -12 2 6 2 18 0 25 -3 6 -5 1 -5 -13z"/>
<path d="M1091 5534 c0 -11 3 -14 6 -6 3 7 2 16 -1 19 -3 4 -6 -2 -5 -13z"/>
<path d="M719 5505 c17 -33 31 -51 31 -40 0 6 -10 21 -21 35 -13 17 -17 18
-10 5z"/>
<path d="M1077 5503 c-16 -15 -5 -44 22 -58 16 -8 31 -20 34 -27 4 -10 6 -10
6 0 1 7 -13 21 -29 30 -23 13 -30 23 -27 40 5 24 4 26 -6 15z"/>
<path d="M1126 5365 c3 -22 8 -52 11 -67 4 -22 0 -29 -26 -42 -39 -21 -39 -31
-1 -45 18 -6 28 -6 25 -1 -4 6 -13 10 -21 10 -21 0 -17 12 13 36 l27 21 -17
64 c-9 35 -14 46 -11 24z"/>
<path d="M820 5301 c5 -11 15 -23 21 -27 6 -3 3 5 -6 20 -20 30 -30 35 -15 7z"/>
<path d="M873 5252 c9 -10 17 -29 18 -43 0 -13 3 -18 6 -11 8 21 -5 59 -24 66
-16 6 -16 6 0 -12z"/>
<path d="M1141 5124 c0 -11 3 -14 6 -6 3 7 2 16 -1 19 -3 4 -6 -2 -5 -13z"/>
<path d="M1058 5053 c7 -3 16 -2 19 1 4 3 -2 6 -13 5 -11 0 -14 -3 -6 -6z"/>
<path d="M4955 8900 c3 -5 14 -10 23 -10 15 0 15 2 2 10 -20 13 -33 13 -25 0z"/>
<path d="M4680 8855 c14 -8 34 -14 45 -14 14 0 10 4 -14 14 -43 19 -64 19 -31
0z"/>
<path d="M4798 8833 c7 -3 16 -2 19 1 4 3 -2 6 -13 5 -11 0 -14 -3 -6 -6z"/>
<path d="M4857 8621 c-4 -19 -17 -36 -34 -45 -15 -8 -22 -15 -15 -16 20 0 62
47 62 70 0 29 -7 25 -13 -9z"/>
<path d="M4478 8437 c-3 -19 -2 -25 4 -19 6 6 8 18 6 28 -3 14 -5 12 -10 -9z"/>
<path d="M529 8733 c-13 -16 -12 -17 4 -4 16 13 21 21 13 21 -2 0 -10 -8 -17
-17z"/>
<path d="M700 8715 c10 -12 10 -18 -1 -32 -12 -17 -12 -17 5 -1 19 17 16 48
-5 48 -8 0 -8 -4 1 -15z"/>
<path d="M5148 8203 c7 -3 16 -2 19 1 4 3 -2 6 -13 5 -11 0 -14 -3 -6 -6z"/>
<path d="M5076 8192 c-3 -5 8 -6 25 -4 16 2 29 6 29 8 0 8 -49 4 -54 -4z"/>
<path d="M5061 8154 c0 -11 3 -14 6 -6 3 7 2 16 -1 19 -3 4 -6 -2 -5 -13z"/>
<path d="M5202 8150 c0 -14 2 -19 5 -12 2 6 2 18 0 25 -3 6 -5 1 -5 -13z"/>
<path d="M5165 8099 c-16 -10 -25 -19 -19 -19 7 0 22 9 35 20 30 24 23 24 -16
-1z"/>
<path d="M5098 8073 c7 -3 16 -2 19 1 4 3 -2 6 -13 5 -11 0 -14 -3 -6 -6z"/>
<path d="M9337 5853 c-12 -11 -8 -23 8 -23 8 0 15 7 15 15 0 16 -12 20 -23 8z"/>
<path d="M9255 5745 c-24 -42 -26 -65 -5 -65 13 0 60 75 60 95 0 30 -29 14
-55 -30z"/>
<path d="M11310 5802 c0 -11 9 -27 20 -37 11 -10 22 -26 25 -36 7 -22 33 -25
41 -6 7 20 -46 97 -68 97 -11 0 -18 -7 -18 -18z"/>
<path d="M10032 5386 c-10 -14 -24 -39 -31 -56 -6 -16 -16 -44 -23 -61 -6 -17
-33 -64 -58 -103 -55 -82 -100 -169 -100 -190 0 -28 19 -26 54 4 l35 31 3 -43
c2 -35 7 -44 24 -46 17 -2 25 7 41 45 11 26 53 90 94 141 97 122 189 253 189
269 0 7 -9 13 -20 13 -13 0 -43 -29 -87 -87 -77 -98 -180 -209 -188 -201 -3 3
11 39 32 80 55 107 85 184 81 204 -5 27 -24 27 -46 0z"/>
<path d="M9825 4040 c-18 -36 -19 -40 -2 -40 21 0 50 37 44 55 -10 23 -25 18
-42 -15z"/>
<path d="M10500 8361 c-5 -11 -10 -46 -10 -77 0 -32 -7 -114 -16 -182 -9 -67
-13 -129 -10 -137 10 -26 34 -16 44 18 30 96 51 359 32 382 -17 20 -27 19 -40
-4z"/>
<path d="M10460 7890 c0 -5 5 -10 10 -10 6 0 10 5 10 10 0 6 -4 10 -10 10 -5
0 -10 -4 -10 -10z"/>
<path d="M10225 7176 c-11 -8 -16 -20 -12 -29 9 -24 37 -9 37 19 0 28 0 28
-25 10z"/>
<path d="M10464 6969 c-12 -19 -4 -137 17 -266 24 -147 26 -153 50 -153 14 0
21 9 26 30 l6 31 21 -21 c12 -11 30 -20 40 -20 19 0 19 13 -2 106 -14 67 -27
77 -56 48 -9 -8 -20 -13 -25 -10 -5 3 -12 54 -16 113 -3 60 -10 118 -15 131
-10 23 -34 29 -46 11z"/>
<path d="M10887 6853 c-17 -16 -2 -43 56 -101 45 -44 70 -62 89 -62 21 0 38
15 38 35 0 9 -155 135 -165 135 -6 0 -15 -3 -18 -7z"/>
<path d="M10213 6639 c-105 -124 -106 -126 -100 -143 14 -37 65 -8 124 69 61
80 87 155 54 155 -5 0 -40 -36 -78 -81z"/>
<path d="M10770 6699 c0 -31 74 -175 133 -259 40 -58 58 -76 80 -78 40 -5 35
26 -13 87 -22 28 -68 101 -101 161 -44 80 -66 110 -80 110 -13 0 -19 -7 -19
-21z"/>
<path d="M9835 6340 c-4 -6 -3 -16 3 -22 6 -6 12 -6 17 2 4 6 3 16 -3 22 -6 6
-12 6 -17 -2z"/>
<path d="M10630 6274 c0 -8 5 -12 10 -9 6 3 10 10 10 16 0 5 -4 9 -10 9 -5 0
-10 -7 -10 -16z"/>
<path d="M10902 6208 c2 -13 8 -23 13 -23 6 0 11 10 13 23 2 15 -2 22 -13 22
-11 0 -15 -7 -13 -22z"/>
<path d="M10922 6083 c3 -44 5 -48 30 -51 l28 -3 -15 35 c-11 25 -12 36 -4 36
8 0 8 4 -1 15 -26 31 -41 18 -38 -32z"/>
<path d="M7965 4440 c-3 -5 -1 -10 4 -10 6 0 11 5 11 10 0 6 -2 10 -4 10 -3 0
-8 -4 -11 -10z"/>
<path d="M11044 3545 c-4 -9 -2 -21 4 -27 15 -15 44 -1 40 19 -4 23 -36 29
-44 8z"/>
</g>
</svg>
